<svg id="svg" version="1.1" xmlns="http://www.w3.org/2000/svg" xmlns:xlink="http://www.w3.org/1999/xlink" width="400" height="194.63327370304114" viewBox="0, 0, 400,194.63327370304114"><g id="svgg"><path id="path0" d="M82.649 75.182 C 82.504 75.530,82.119 76.647,81.793 77.664 C 81.468 78.681,80.896 80.389,80.523 81.460 C 79.889 83.276,79.106 85.717,78.065 89.114 C 77.825 89.898,77.666 90.578,77.713 90.625 C 77.832 90.744,78.828 89.099,79.550 87.591 C 80.352 85.916,82.376 81.582,83.436 79.270 C 84.025 77.984,84.074 77.990,85.004 79.465 C 86.027 81.088,87.007 82.733,87.007 82.827 C 87.007 82.909,89.208 86.330,91.226 89.386 C 91.914 90.427,92.566 91.333,92.675 91.401 C 93.051 91.633,93.050 91.342,92.670 90.587 C 92.461 90.171,92.130 89.440,91.936 88.963 C 91.741 88.487,90.661 86.253,89.535 84.000 C 88.410 81.746,87.292 79.465,87.050 78.929 C 86.809 78.394,86.392 77.606,86.125 77.178 C 85.857 76.749,85.557 76.211,85.459 75.980 C 85.360 75.750,84.975 75.461,84.602 75.338 C 84.229 75.215,83.819 74.987,83.690 74.832 C 83.312 74.377,82.932 74.505,82.649 75.182 M125.353 99.075 L 125.353 110.560 127.878 110.560 L 130.404 110.560 130.457 107.494 L 130.511 104.428 131.821 104.371 C 133.240 104.309,133.917 104.537,133.917 105.077 C 133.917 105.266,133.994 105.504,134.087 105.606 C 134.181 105.708,134.539 106.531,134.883 107.435 C 135.228 108.340,135.653 109.413,135.830 109.820 L 136.150 110.560 138.732 110.560 C 141.581 110.560,141.508 110.604,140.905 109.244 C 140.433 108.178,140.392 108.078,139.499 105.791 C 138.891 104.233,138.893 104.219,139.798 103.612 C 141.358 102.566,141.411 102.312,141.411 95.864 L 141.411 90.219 140.935 89.515 C 139.718 87.718,139.149 87.602,131.533 87.596 L 125.353 87.591 125.353 99.075 M146.701 87.719 C 146.629 87.791,146.569 92.960,146.569 99.205 L 146.569 110.560 153.771 110.560 L 160.973 110.560 160.973 108.127 L 160.973 105.693 156.302 105.693 L 151.630 105.693 151.630 103.654 L 151.630 101.615 154.891 101.562 L 158.151 101.509 158.205 99.129 L 158.260 96.749 154.994 96.696 L 151.727 96.642 151.672 94.651 L 151.617 92.659 156.246 92.607 L 160.876 92.555 160.876 90.122 L 160.876 87.689 153.855 87.638 C 149.993 87.609,146.774 87.646,146.701 87.719 M166.164 87.721 C 166.092 87.792,166.034 92.960,166.034 99.205 L 166.034 110.560 168.467 110.560 L 170.900 110.560 170.900 104.753 C 170.900 101.559,170.959 98.887,171.030 98.815 C 171.178 98.668,171.873 99.238,171.873 99.507 C 171.873 99.604,172.172 100.313,172.536 101.083 C 172.900 101.852,173.316 102.766,173.459 103.114 C 173.603 103.462,173.787 103.747,173.867 103.747 C 173.948 103.747,174.015 103.852,174.015 103.981 C 174.015 104.213,175.185 106.745,176.425 109.197 L 177.066 110.462 179.530 110.517 L 181.995 110.571 181.995 99.075 L 181.995 87.579 179.611 87.634 L 177.226 87.689 177.175 93.577 C 177.145 96.985,177.048 99.465,176.945 99.465 C 176.846 99.465,176.268 98.436,175.660 97.178 C 174.127 94.006,172.416 90.441,171.761 89.051 C 171.458 88.409,171.119 87.819,171.007 87.740 C 170.752 87.561,166.341 87.544,166.164 87.721 M187.251 90.122 L 187.251 92.652 190.073 92.652 L 192.895 92.652 192.895 101.606 L 192.895 110.560 195.327 110.560 L 197.758 110.560 197.808 101.655 L 197.859 92.749 200.633 92.695 L 203.406 92.641 203.406 90.116 L 203.406 87.591 195.328 87.591 L 187.251 87.591 187.251 90.122 M211.810 88.081 C 211.684 88.357,211.582 88.749,211.582 88.951 C 211.582 89.154,211.494 89.374,211.387 89.440 C 211.280 89.507,211.192 89.813,211.192 90.122 C 211.192 90.430,211.114 90.731,211.019 90.790 C 210.924 90.848,210.803 91.182,210.751 91.531 C 210.699 91.880,210.418 92.998,210.127 94.015 C 209.835 95.032,209.552 96.149,209.497 96.498 C 209.442 96.847,209.319 97.181,209.224 97.240 C 209.129 97.298,209.051 97.562,209.051 97.824 C 209.051 98.087,208.969 98.454,208.869 98.640 C 208.769 98.826,208.459 99.898,208.181 101.022 C 207.903 102.146,207.601 103.285,207.510 103.552 C 207.419 103.820,207.237 104.433,207.105 104.915 C 206.973 105.397,206.798 106.010,206.715 106.277 C 206.633 106.545,206.462 107.158,206.335 107.640 C 206.107 108.508,205.894 109.278,205.649 110.122 L 205.521 110.560 208.043 110.560 L 210.564 110.560 210.693 109.927 C 210.764 109.579,210.871 109.010,210.931 108.662 C 210.991 108.314,211.118 108.029,211.214 108.029 C 211.309 108.029,211.387 107.852,211.387 107.635 C 211.387 107.253,211.486 107.242,214.453 107.294 L 217.518 107.348 217.582 107.932 C 217.617 108.253,217.726 108.599,217.825 108.701 C 217.924 108.802,218.005 109.039,218.005 109.227 C 218.005 110.436,218.271 110.560,220.881 110.560 C 223.305 110.560,223.306 110.560,223.173 110.122 C 222.701 108.571,222.275 107.033,222.162 106.472 C 222.107 106.204,221.989 105.810,221.898 105.596 C 221.807 105.382,221.689 104.988,221.636 104.720 C 221.493 104.002,220.701 100.986,220.537 100.535 C 220.186 99.574,219.951 98.730,219.951 98.426 C 219.951 98.245,219.871 97.945,219.772 97.759 C 219.674 97.573,219.365 96.545,219.086 95.474 C 218.475 93.133,218.204 92.132,218.005 91.484 C 217.923 91.217,217.745 90.603,217.610 90.122 C 217.475 89.640,217.255 88.895,217.121 88.467 L 216.877 87.689 214.458 87.634 L 212.038 87.580 211.810 88.081 M228.657 87.709 C 228.579 87.787,228.516 92.960,228.516 99.205 L 228.516 110.560 231.041 110.560 L 233.567 110.560 233.620 107.494 L 233.674 104.428 237.762 104.325 C 242.714 104.201,243.533 103.894,244.390 101.842 C 244.731 101.026,244.810 90.620,244.477 90.414 C 244.370 90.347,244.282 90.165,244.282 90.008 C 244.282 89.622,243.188 88.444,242.448 88.031 C 241.816 87.679,228.987 87.379,228.657 87.709 M249.927 99.069 L 249.927 110.560 256.642 110.560 L 263.358 110.560 263.358 108.130 L 263.358 105.701 259.124 105.649 L 254.891 105.596 254.793 96.642 L 254.696 87.689 252.311 87.634 L 249.927 87.579 249.927 99.069 M268.554 87.715 C 268.479 87.790,268.422 92.062,268.427 97.210 C 268.440 111.088,268.118 110.560,276.568 110.560 C 285.109 110.560,284.802 111.063,284.725 97.226 L 284.672 87.689 282.238 87.689 L 279.805 87.689 279.708 96.642 L 279.611 105.596 276.644 105.650 L 273.678 105.704 273.627 96.696 L 273.577 87.689 271.133 87.634 C 269.789 87.605,268.628 87.641,268.554 87.715 M292.912 87.775 C 291.718 88.007,290.592 88.928,290.121 90.057 C 289.683 91.105,289.701 98.255,290.143 99.134 C 291.156 101.143,291.939 101.481,295.864 101.603 L 299.075 101.703 299.075 103.650 L 299.075 105.596 294.453 105.648 L 289.830 105.700 289.830 108.130 L 289.830 110.560 295.348 110.560 C 301.998 110.560,302.748 110.362,303.756 108.341 C 304.136 107.581,304.169 99.686,303.796 99.035 C 302.651 97.041,301.916 96.740,298.193 96.740 C 294.516 96.740,294.659 96.833,294.737 94.472 L 294.793 92.749 299.416 92.697 L 304.039 92.645 304.039 90.118 L 304.039 87.591 298.832 87.614 C 295.968 87.626,293.304 87.699,292.912 87.775 M309.294 99.075 L 309.294 110.571 311.776 110.517 L 314.258 110.462 314.310 106.029 L 314.363 101.596 317.327 101.649 L 320.292 101.703 320.344 106.131 L 320.397 110.560 322.923 110.560 L 325.450 110.560 325.450 99.070 L 325.450 87.580 322.968 87.634 L 320.487 87.689 320.389 92.165 L 320.292 96.642 317.372 96.642 L 314.453 96.642 314.355 92.165 L 314.258 87.689 311.776 87.634 L 309.294 87.580 309.294 99.075 M75.231 90.766 C 74.910 90.883,73.552 91.545,72.214 92.236 C 70.876 92.928,68.162 94.317,66.182 95.323 C 62.295 97.300,62.188 97.371,61.401 98.506 C 60.636 99.611,61.584 100.266,66.569 102.079 C 67.372 102.371,68.457 102.778,68.980 102.984 C 69.503 103.189,70.079 103.358,70.261 103.358 C 70.443 103.358,70.652 103.418,70.725 103.491 C 70.968 103.734,72.297 104.128,73.285 104.251 C 74.742 104.431,73.345 103.567,66.764 100.218 C 63.070 98.337,62.690 98.069,63.070 97.610 C 63.201 97.453,63.543 97.324,63.829 97.324 C 64.116 97.324,64.434 97.251,64.535 97.163 C 64.637 97.074,65.114 96.887,65.596 96.745 C 67.637 96.148,69.823 95.373,71.294 94.726 C 73.299 93.843,73.773 93.652,74.745 93.336 C 76.903 92.634,76.886 92.644,76.886 92.054 C 76.886 90.719,76.398 90.340,75.231 90.766 M92.870 92.546 C 92.521 93.728,92.571 93.798,94.119 94.299 C 97.080 95.258,99.925 95.572,105.643 95.572 C 110.751 95.572,110.499 95.311,104.526 94.414 C 103.723 94.294,102.692 94.111,102.236 94.007 C 101.779 93.904,101.104 93.820,100.736 93.820 C 100.368 93.820,99.866 93.742,99.620 93.647 C 99.374 93.552,98.691 93.368,98.102 93.237 C 96.572 92.897,94.794 92.308,94.277 91.969 C 93.494 91.457,93.150 91.598,92.870 92.546 M136.156 92.959 C 136.512 93.228,136.545 93.481,136.545 95.961 C 136.545 99.433,136.705 99.280,133.139 99.218 L 130.511 99.173 130.458 95.912 L 130.404 92.652 133.085 92.658 C 135.169 92.663,135.853 92.730,136.156 92.959 M239.687 92.960 C 239.977 93.715,239.814 99.030,239.497 99.152 C 239.328 99.217,237.927 99.270,236.383 99.270 L 233.577 99.270 233.577 95.961 L 233.577 92.652 236.573 92.652 C 239.125 92.652,239.587 92.698,239.687 92.960 M108.416 96.529 C 102.200 99.165,97.846 101.541,96.003 103.305 C 95.118 104.152,95.232 104.550,96.434 104.807 C 97.347 105.002,97.411 105.059,97.771 105.985 C 97.979 106.521,98.314 107.330,98.515 107.784 C 98.716 108.238,98.881 108.647,98.881 108.694 C 98.881 108.741,99.187 109.443,99.562 110.254 C 99.937 111.065,100.243 111.770,100.243 111.821 C 100.243 111.871,100.516 112.506,100.848 113.231 C 101.820 115.348,102.968 118.515,102.968 119.075 C 102.968 119.211,102.426 119.092,101.995 118.861 C 101.228 118.450,98.638 116.991,96.210 115.603 C 95.151 114.997,93.921 114.168,93.852 114.015 C 93.817 113.934,93.709 113.869,93.614 113.869 C 93.301 113.869,89.650 111.422,89.017 110.788 C 88.678 110.448,88.231 110.170,88.025 110.170 C 87.371 110.170,86.443 110.580,86.334 110.917 C 86.277 111.095,86.032 111.338,85.791 111.456 C 85.423 111.637,83.296 112.849,80.876 114.257 C 77.072 116.471,73.569 118.767,71.775 120.223 C 71.158 120.723,70.597 121.075,70.527 121.005 C 70.144 120.622,71.428 115.654,72.909 111.793 C 73.490 110.276,73.966 108.895,73.966 108.724 C 73.966 108.553,74.045 108.261,74.142 108.075 C 75.000 106.423,74.854 105.511,73.687 105.235 C 72.650 104.990,72.483 105.301,71.824 108.710 C 71.700 109.353,71.428 110.458,71.219 111.167 C 70.039 115.180,69.882 116.169,69.896 119.513 C 69.903 121.280,69.953 122.594,70.006 122.433 C 70.060 122.273,70.144 122.017,70.192 121.865 C 70.256 121.666,70.487 121.790,71.012 122.303 C 71.927 123.196,71.855 123.204,73.058 122.065 C 74.117 121.062,77.232 118.589,79.702 116.788 C 80.509 116.200,81.367 115.570,81.607 115.389 C 86.018 112.066,86.836 111.569,87.040 112.087 C 87.295 112.734,94.894 116.938,98.005 118.154 C 98.555 118.369,99.581 118.809,100.827 119.365 C 101.416 119.628,102.336 120.002,102.871 120.197 C 103.406 120.392,103.927 120.624,104.029 120.713 C 104.131 120.803,104.394 120.873,104.613 120.869 C 104.977 120.863,104.965 120.823,104.477 120.424 C 103.874 119.930,103.358 118.299,103.358 116.885 C 103.358 116.414,103.279 115.827,103.183 115.581 C 103.087 115.335,102.899 114.740,102.765 114.258 C 102.630 113.776,102.178 112.375,101.760 111.144 C 101.022 108.973,100.361 106.912,99.823 105.110 C 99.605 104.379,99.469 104.219,98.996 104.137 L 98.429 104.039 99.288 103.349 C 99.760 102.969,100.628 102.346,101.217 101.963 C 104.520 99.815,106.297 98.686,106.373 98.686 C 106.493 98.686,108.537 97.344,109.567 96.589 C 110.637 95.805,110.181 95.781,108.416 96.529 M214.863 98.054 C 215.001 98.562,215.195 99.179,215.294 99.425 C 215.393 99.671,215.474 100.082,215.474 100.338 C 215.474 100.595,215.562 100.858,215.669 100.925 C 216.497 101.436,215.701 102.191,214.339 102.187 C 213.022 102.182,212.882 102.043,213.148 101.005 C 213.270 100.533,213.415 99.861,213.470 99.512 C 213.526 99.163,213.649 98.829,213.744 98.770 C 213.839 98.711,213.917 98.423,213.917 98.130 C 213.917 97.643,214.216 97.129,214.498 97.129 C 214.560 97.129,214.724 97.545,214.863 98.054 " stroke="none" fill="#074fb1" fill-rule="evenodd"></path><path id="path1" d="M0.000 97.324 L 0.000 194.647 200.000 194.647 L 400.000 194.647 400.000 97.324 L 400.000 0.000 200.000 0.000 L 0.000 0.000 0.000 97.324 M84.088 74.745 C 84.355 74.954,84.749 75.128,84.964 75.131 C 85.359 75.137,85.662 75.608,87.101 78.443 C 88.202 80.613,91.996 88.393,92.726 89.976 C 93.140 90.875,93.538 91.484,93.712 91.484 C 93.872 91.484,94.315 91.659,94.696 91.873 C 95.077 92.088,95.519 92.263,95.678 92.263 C 95.836 92.263,96.118 92.346,96.304 92.449 C 96.912 92.783,100.277 93.474,103.942 94.017 C 108.441 94.684,110.741 95.240,110.894 95.698 C 110.996 96.005,104.948 100.243,104.406 100.243 C 104.341 100.243,103.724 100.637,103.035 101.119 C 102.346 101.601,101.698 101.995,101.597 101.995 C 101.495 101.995,101.411 102.068,101.411 102.157 C 101.411 102.246,101.170 102.443,100.876 102.595 C 99.766 103.168,99.352 103.688,99.696 104.079 C 99.865 104.271,100.060 104.647,100.130 104.915 C 100.622 106.798,100.910 107.752,101.218 108.516 C 101.411 108.994,102.716 112.967,102.944 113.771 C 103.372 115.277,103.536 116.024,103.745 117.435 C 103.983 119.036,104.283 120.097,104.496 120.098 C 104.792 120.098,105.719 121.067,105.603 121.255 C 105.410 121.566,105.027 121.506,103.895 120.988 C 103.328 120.729,102.417 120.340,101.870 120.125 C 100.930 119.754,100.138 119.412,98.102 118.496 C 97.620 118.279,97.051 118.032,96.837 117.947 C 94.283 116.930,88.875 113.972,87.543 112.863 L 86.618 112.094 85.402 112.985 C 84.732 113.474,83.484 114.375,82.628 114.985 C 81.771 115.595,80.952 116.210,80.807 116.351 C 80.661 116.492,80.004 116.970,79.347 117.413 C 78.689 117.856,78.107 118.270,78.054 118.332 C 78.000 118.394,77.606 118.703,77.178 119.018 C 76.749 119.332,76.355 119.639,76.302 119.698 C 76.248 119.757,75.679 120.242,75.036 120.775 C 74.394 121.308,73.518 122.073,73.090 122.476 C 72.212 123.301,71.700 123.389,71.091 122.822 C 70.641 122.403,70.268 122.315,70.268 122.628 C 70.268 122.942,69.736 122.851,69.607 122.514 C 69.425 122.040,69.480 117.817,69.686 116.399 C 69.915 114.829,70.079 114.111,70.798 111.533 C 71.591 108.688,71.825 107.703,71.826 107.199 C 71.828 106.046,72.498 104.822,73.196 104.697 L 73.869 104.577 73.255 104.551 C 72.715 104.529,69.283 103.452,68.224 102.972 C 68.010 102.875,66.935 102.479,65.835 102.092 C 64.024 101.456,61.597 100.316,60.973 99.809 C 60.697 99.585,60.640 98.686,60.902 98.686 C 60.997 98.686,61.211 98.398,61.378 98.047 C 61.713 97.341,61.935 97.202,66.277 94.980 C 70.980 92.573,71.724 92.174,71.792 92.019 C 71.828 91.939,72.018 91.873,72.214 91.873 C 72.410 91.873,72.600 91.805,72.636 91.722 C 72.696 91.582,74.137 90.916,75.692 90.311 C 76.457 90.013,76.953 90.453,77.173 91.625 C 77.343 92.534,77.032 92.951,75.969 93.237 C 75.456 93.375,74.953 93.563,74.852 93.654 C 74.750 93.745,74.508 93.820,74.314 93.820 C 74.120 93.820,73.809 93.900,73.623 93.999 C 73.039 94.307,71.492 94.968,70.124 95.492 C 69.400 95.770,68.633 96.072,68.418 96.164 C 68.204 96.255,67.416 96.523,66.667 96.757 C 65.917 96.992,64.835 97.335,64.263 97.519 L 63.221 97.853 63.806 98.270 C 64.128 98.499,64.480 98.686,64.588 98.686 C 64.696 98.686,64.814 98.753,64.850 98.835 C 64.886 98.917,65.703 99.385,66.667 99.875 C 70.163 101.654,73.960 103.694,74.302 103.978 C 74.642 104.260,74.614 104.720,74.258 104.720 C 74.097 104.720,73.966 104.808,73.966 104.915 C 73.966 105.022,74.065 105.109,74.186 105.109 C 74.594 105.109,75.145 105.934,75.022 106.359 C 74.754 107.286,74.487 108.151,74.355 108.516 C 74.278 108.730,74.107 109.255,73.976 109.684 C 73.765 110.370,72.640 113.488,72.220 114.550 C 71.570 116.191,70.694 120.199,70.933 120.438 C 70.988 120.493,71.330 120.286,71.693 119.977 C 72.056 119.669,72.519 119.284,72.722 119.123 C 73.374 118.603,76.286 116.594,76.387 116.594 C 76.440 116.594,77.078 116.213,77.804 115.748 C 78.530 115.282,79.650 114.617,80.292 114.269 C 80.934 113.921,81.547 113.569,81.655 113.487 C 81.762 113.404,82.243 113.118,82.725 112.851 C 84.959 111.612,86.044 110.905,86.222 110.572 C 86.580 109.903,88.471 109.507,88.683 110.057 C 88.814 110.399,90.930 111.960,92.749 113.057 C 93.499 113.509,94.856 114.362,95.766 114.953 C 96.676 115.544,97.596 116.111,97.810 116.211 C 98.024 116.312,98.725 116.704,99.367 117.083 C 100.010 117.462,100.864 117.921,101.265 118.104 C 101.667 118.288,101.995 118.504,101.995 118.586 C 101.995 118.668,102.136 118.735,102.308 118.735 C 102.530 118.735,102.580 118.636,102.480 118.394 C 102.403 118.207,102.266 117.746,102.177 117.370 C 101.963 116.472,101.414 115.135,100.122 112.362 C 99.760 111.588,99.465 110.908,99.465 110.852 C 99.465 110.796,99.290 110.357,99.075 109.876 C 98.861 109.396,98.518 108.624,98.312 108.161 C 98.106 107.698,97.796 106.884,97.621 106.352 C 97.325 105.445,97.247 105.367,96.390 105.124 C 95.189 104.784,94.917 104.449,95.276 103.755 C 96.046 102.266,101.659 98.968,107.153 96.778 C 109.133 95.988,109.101 95.964,106.092 95.962 C 102.102 95.961,95.824 95.310,94.429 94.754 C 94.147 94.642,93.698 94.463,93.431 94.357 C 92.506 93.991,92.360 93.876,92.300 93.473 C 92.266 93.250,92.376 92.804,92.542 92.482 C 92.836 91.914,92.827 91.876,92.257 91.252 C 91.570 90.501,86.582 82.796,85.644 81.038 C 84.429 78.761,83.539 78.267,83.510 79.854 C 83.506 80.041,83.416 80.195,83.309 80.195 C 83.202 80.195,83.114 80.318,83.114 80.468 C 83.114 80.619,82.943 81.079,82.733 81.490 C 82.524 81.902,82.035 82.939,81.646 83.796 C 79.234 89.117,77.904 91.413,77.481 90.989 C 77.297 90.804,77.827 88.337,78.112 88.051 C 78.187 87.977,78.248 87.716,78.248 87.473 C 78.248 87.229,78.336 86.976,78.443 86.910 C 78.550 86.844,78.637 86.618,78.637 86.409 C 78.637 86.200,78.715 85.877,78.810 85.691 C 78.905 85.505,79.307 84.302,79.704 83.017 C 80.420 80.701,80.538 80.356,80.929 79.416 C 81.377 78.340,81.712 77.319,81.950 76.302 C 82.397 74.390,83.038 73.923,84.088 74.745 M138.543 87.375 C 138.729 87.470,139.218 87.711,139.631 87.910 C 141.573 88.848,141.972 90.475,141.863 97.014 C 141.776 102.241,141.343 103.575,139.541 104.176 C 139.293 104.258,139.488 105.012,140.187 106.667 C 140.300 106.934,140.460 107.328,140.542 107.543 C 140.624 107.757,140.879 108.354,141.108 108.871 C 141.337 109.387,141.575 110.066,141.638 110.379 L 141.752 110.949 138.855 110.949 L 135.959 110.949 135.695 110.353 C 135.550 110.025,135.172 109.083,134.855 108.260 C 134.258 106.711,133.800 105.614,133.539 105.109 C 133.427 104.893,133.042 104.818,132.047 104.818 L 130.706 104.818 130.652 107.883 L 130.598 110.949 127.878 110.949 L 125.158 110.949 125.158 99.205 C 125.158 92.746,125.217 87.403,125.288 87.332 C 125.485 87.135,138.155 87.176,138.543 87.375 M161.071 90.024 L 161.071 92.749 156.448 92.802 L 151.825 92.854 151.825 94.505 L 151.825 96.156 154.855 96.156 C 158.858 96.156,158.637 95.991,158.637 98.969 C 158.637 102.296,158.988 101.995,155.113 101.995 L 151.825 101.995 151.825 103.646 L 151.825 105.297 156.448 105.349 L 161.071 105.401 161.071 108.127 L 161.071 110.852 153.784 110.903 C 148.084 110.943,146.464 110.900,146.342 110.708 C 146.162 110.424,146.120 87.974,146.299 87.508 C 146.406 87.230,147.190 87.203,153.744 87.248 L 161.071 87.299 161.071 90.024 M171.471 87.767 C 171.692 88.078,171.873 88.389,171.873 88.457 C 171.873 88.526,172.281 89.432,172.778 90.471 C 173.276 91.510,174.164 93.367,174.752 94.599 C 175.339 95.830,176.005 97.210,176.231 97.665 L 176.642 98.493 176.694 93.107 C 176.729 89.530,176.818 87.634,176.961 87.461 C 177.347 86.996,182.121 87.100,182.378 87.578 C 182.595 87.985,182.675 110.083,182.461 110.641 C 182.361 110.901,181.924 110.949,179.629 110.949 L 176.915 110.949 175.639 108.273 C 174.937 106.800,173.759 104.342,173.021 102.809 C 172.283 101.277,171.679 99.923,171.679 99.802 C 171.679 99.657,171.613 99.647,171.487 99.773 C 171.373 99.887,171.275 102.172,171.244 105.408 L 171.192 110.852 168.467 110.852 L 165.742 110.852 165.692 99.185 C 165.652 89.981,165.693 87.486,165.887 87.363 C 166.021 87.278,167.242 87.207,168.600 87.205 L 171.068 87.202 171.471 87.767 M203.673 87.640 C 203.826 88.213,203.830 92.141,203.677 92.539 C 203.578 92.798,203.152 92.847,200.973 92.847 C 198.795 92.847,198.369 92.895,198.269 93.155 C 198.204 93.324,198.151 97.399,198.151 102.211 L 198.151 110.960 195.377 110.906 L 192.603 110.852 192.506 101.898 L 192.409 92.944 189.732 92.890 L 187.056 92.836 187.056 90.149 C 187.056 88.671,187.114 87.403,187.186 87.332 C 187.257 87.260,190.970 87.202,195.436 87.202 L 203.556 87.202 203.673 87.640 M217.321 87.907 C 217.483 88.295,217.616 88.778,217.616 88.980 C 217.616 89.183,217.696 89.500,217.795 89.686 C 217.893 89.872,218.202 90.900,218.481 91.971 C 219.282 95.043,219.732 96.641,219.976 97.284 C 220.070 97.530,220.146 97.903,220.146 98.114 C 220.146 98.325,220.227 98.649,220.327 98.835 C 220.427 99.021,220.741 100.092,221.025 101.217 C 221.310 102.341,221.616 103.436,221.706 103.650 C 221.795 103.864,221.913 104.258,221.967 104.526 C 222.021 104.793,222.164 105.363,222.285 105.791 C 222.958 108.182,223.650 110.746,223.650 110.848 C 223.650 110.903,222.421 110.949,220.920 110.949 C 217.843 110.949,218.124 111.098,217.617 109.197 C 217.208 107.664,217.377 107.743,214.367 107.683 L 211.646 107.630 211.441 108.365 C 211.327 108.769,211.118 109.518,210.975 110.029 L 210.715 110.959 207.985 110.905 C 205.382 110.854,205.258 110.833,205.309 110.462 C 205.390 109.874,206.337 106.235,206.524 105.791 C 206.615 105.577,206.820 104.876,206.979 104.234 C 207.229 103.227,207.582 101.938,208.684 98.005 C 208.803 97.577,208.969 97.007,209.051 96.740 C 209.133 96.472,209.310 95.859,209.444 95.377 C 209.578 94.895,209.762 94.238,209.852 93.917 C 209.943 93.596,210.238 92.501,210.509 91.484 C 211.784 86.688,211.313 87.202,214.434 87.202 L 217.026 87.202 217.321 87.907 M242.336 87.640 C 244.698 88.820,244.944 89.482,245.026 94.891 C 245.166 104.038,244.812 104.517,237.908 104.522 L 233.771 104.526 233.771 107.743 L 233.771 110.960 230.998 110.906 L 228.224 110.852 228.173 99.270 C 228.146 92.900,228.166 87.576,228.219 87.438 C 228.384 87.005,241.439 87.191,242.336 87.640 M255.136 96.302 L 255.186 105.304 259.159 105.304 C 264.248 105.304,263.747 104.983,263.747 108.247 L 263.747 110.954 256.691 110.903 L 249.635 110.852 249.585 99.270 C 249.557 92.900,249.577 87.577,249.629 87.440 C 249.702 87.251,250.368 87.204,252.405 87.245 L 255.085 87.299 255.136 96.302 M273.822 96.302 L 273.873 105.304 276.594 105.304 L 279.315 105.304 279.365 96.302 L 279.416 87.299 282.141 87.299 L 284.866 87.299 284.917 97.323 C 284.987 111.341,285.230 110.949,276.496 110.949 C 270.583 110.949,269.736 110.667,268.640 108.335 C 268.219 107.440,267.955 87.730,268.359 87.326 C 268.433 87.252,269.681 87.216,271.133 87.245 L 273.771 87.299 273.822 96.302 M304.385 90.073 L 304.439 92.847 299.872 92.847 C 294.657 92.847,295.140 92.645,295.093 94.842 L 295.065 96.156 297.557 96.164 C 301.198 96.177,302.643 96.684,303.770 98.345 L 304.331 99.173 304.331 103.455 C 304.331 110.737,304.020 110.987,295.074 110.903 L 289.538 110.852 289.484 108.175 C 289.454 106.703,289.454 105.481,289.484 105.459 C 289.513 105.437,291.596 105.372,294.112 105.313 L 298.686 105.207 298.742 103.618 L 298.799 102.030 295.725 101.961 C 290.289 101.840,289.440 100.847,289.440 94.609 C 289.440 90.140,289.954 88.653,291.776 87.852 C 292.044 87.734,292.482 87.545,292.749 87.432 C 293.061 87.299,295.227 87.238,298.783 87.262 L 304.331 87.299 304.385 90.073 M314.505 91.727 L 314.557 96.156 317.372 96.156 L 320.187 96.156 320.240 91.727 L 320.292 87.299 322.920 87.299 L 325.547 87.299 325.598 99.124 L 325.648 110.949 322.921 110.949 L 320.195 110.949 320.195 106.472 L 320.195 101.995 317.372 101.995 L 314.550 101.995 314.550 106.472 L 314.550 110.949 311.825 110.949 L 309.100 110.949 309.100 99.070 L 309.100 87.191 311.776 87.245 L 314.453 87.299 314.505 91.727 M130.753 92.962 C 130.673 93.041,130.608 94.449,130.608 96.091 L 130.608 99.075 133.109 99.075 C 136.360 99.075,136.253 99.182,136.253 95.921 C 136.253 93.889,136.199 93.433,135.932 93.211 C 135.580 92.919,131.016 92.699,130.753 92.962 M233.771 95.961 L 233.771 99.075 236.496 99.075 L 239.221 99.075 239.221 95.961 L 239.221 92.847 236.496 92.847 L 233.771 92.847 233.771 95.961 M214.241 98.123 C 214.200 98.272,214.067 98.707,213.945 99.089 C 213.823 99.472,213.723 99.970,213.723 100.197 C 213.723 100.424,213.635 100.664,213.528 100.730 C 212.800 101.180,213.348 101.800,214.473 101.800 L 215.612 101.800 215.097 99.959 C 214.569 98.072,214.372 97.648,214.241 98.123 " stroke="none" fill="#fbfbfc" fill-rule="evenodd"></path><path id="path2" d="M131.971 87.578 C 138.887 87.692,139.073 87.714,140.000 88.522 C 140.187 88.686,140.341 88.734,140.341 88.630 C 140.341 88.527,139.968 88.228,139.513 87.968 L 138.686 87.494 131.971 87.481 L 125.255 87.468 131.971 87.578 M146.375 99.055 C 146.375 109.506,146.407 110.725,146.683 110.831 C 147.225 111.039,160.745 110.966,160.876 110.754 C 160.955 110.626,158.542 110.560,153.781 110.560 L 146.566 110.560 146.616 99.124 L 146.667 87.689 153.820 87.689 C 157.754 87.689,160.973 87.623,160.973 87.543 C 160.973 87.462,157.689 87.397,153.674 87.397 L 146.375 87.397 146.375 99.055 M165.958 87.704 C 165.682 88.421,165.829 110.503,166.110 110.737 C 166.291 110.886,167.154 110.943,168.689 110.907 L 170.998 110.852 171.095 104.933 C 171.200 98.529,171.190 98.571,172.161 100.700 C 172.447 101.325,172.720 101.797,172.769 101.748 C 172.818 101.700,172.636 101.219,172.366 100.680 C 172.095 100.141,171.873 99.617,171.873 99.515 C 171.873 99.240,171.181 98.665,171.030 98.815 C 170.959 98.887,170.900 101.559,170.900 104.753 L 170.900 110.560 168.466 110.560 L 166.031 110.560 166.081 99.124 L 166.131 87.689 168.692 87.689 C 170.101 87.689,171.212 87.623,171.162 87.543 C 170.965 87.224,166.084 87.375,165.958 87.704 M177.129 87.543 C 177.128 87.623,178.223 87.662,179.562 87.629 L 181.995 87.569 181.995 99.070 L 181.995 110.571 179.536 110.517 L 177.077 110.462 176.729 109.812 C 176.418 109.232,175.951 108.615,176.189 109.100 C 176.242 109.207,176.431 109.613,176.609 110.003 C 177.026 110.917,177.134 110.949,179.766 110.949 C 181.757 110.949,182.002 110.911,182.183 110.572 C 182.401 110.166,182.480 88.262,182.266 87.704 C 182.141 87.377,177.129 87.219,177.129 87.543 M195.274 87.543 L 203.395 87.596 203.456 90.172 L 203.516 92.749 203.558 90.073 L 203.601 87.397 195.377 87.443 L 187.153 87.490 195.274 87.543 M211.810 87.648 C 211.539 87.974,211.179 89.569,211.408 89.427 C 211.503 89.368,211.582 89.154,211.582 88.951 C 211.582 88.749,211.684 88.357,211.810 88.081 L 212.038 87.580 214.474 87.634 L 216.910 87.689 217.079 88.343 C 217.172 88.702,217.285 88.960,217.329 88.916 C 217.374 88.871,217.321 88.511,217.212 88.116 L 217.013 87.397 214.516 87.397 C 212.715 87.397,211.960 87.467,211.810 87.648 M228.321 99.045 C 228.321 109.505,228.353 110.725,228.629 110.831 C 229.149 111.030,233.350 110.964,233.479 110.754 C 233.557 110.628,232.702 110.560,231.056 110.560 L 228.513 110.560 228.563 99.124 L 228.613 87.689 235.134 87.689 C 242.357 87.689,242.529 87.715,243.593 88.980 C 243.874 89.314,244.143 89.547,244.191 89.500 C 244.329 89.362,243.140 88.221,242.464 87.841 C 241.915 87.533,241.127 87.490,235.085 87.437 L 228.321 87.378 228.321 99.045 M249.780 99.124 L 249.830 110.852 256.253 110.906 C 264.465 110.975,263.575 111.311,263.509 108.170 L 263.455 105.596 259.270 105.499 L 255.085 105.401 255.035 96.399 L 254.984 87.397 252.357 87.397 L 249.729 87.397 249.780 99.124 M268.418 87.543 C 268.418 87.623,269.601 87.689,271.046 87.689 C 272.491 87.689,273.674 87.623,273.674 87.543 C 273.674 87.462,272.491 87.397,271.046 87.397 C 269.601 87.397,268.418 87.462,268.418 87.543 M279.643 87.526 C 279.572 87.598,279.513 91.668,279.513 96.572 L 279.513 105.489 276.593 105.550 L 273.674 105.612 276.642 105.604 L 279.611 105.596 279.708 96.642 L 279.805 87.689 282.287 87.689 C 283.652 87.689,284.769 87.623,284.769 87.543 C 284.769 87.362,279.823 87.347,279.643 87.526 M292.794 87.587 C 292.109 87.750,290.536 88.751,290.703 88.919 C 290.759 88.974,291.001 88.841,291.242 88.622 C 292.243 87.710,292.373 87.692,298.340 87.625 L 304.027 87.560 304.088 90.155 L 304.149 92.749 304.191 90.073 L 304.234 87.397 298.832 87.417 C 295.861 87.427,293.144 87.504,292.794 87.587 M309.189 87.640 C 309.138 87.774,309.119 93.051,309.147 99.367 L 309.197 110.852 311.338 110.908 C 313.470 110.965,314.355 110.875,314.356 110.605 C 314.356 110.526,313.217 110.489,311.825 110.522 L 309.294 110.581 309.294 99.075 L 309.294 87.570 311.825 87.629 C 313.217 87.662,314.356 87.623,314.356 87.543 C 314.355 87.275,309.292 87.370,309.189 87.640 M320.289 87.634 C 320.238 87.771,320.174 89.810,320.147 92.165 L 320.097 96.448 317.387 96.502 C 315.357 96.543,314.633 96.494,314.501 96.307 C 314.368 96.118,314.345 96.128,314.405 96.350 C 314.472 96.593,314.973 96.642,317.388 96.642 L 320.292 96.642 320.389 92.165 L 320.487 87.689 322.968 87.634 L 325.450 87.580 325.450 99.070 L 325.450 110.560 322.923 110.560 L 320.397 110.560 320.344 106.131 L 320.292 101.703 317.324 101.649 C 314.585 101.600,314.356 101.622,314.371 101.941 C 314.380 102.145,314.426 102.187,314.484 102.044 C 314.556 101.865,315.326 101.800,317.388 101.800 L 320.195 101.800 320.195 106.173 C 320.195 111.362,319.935 110.949,323.195 110.949 C 325.365 110.949,325.446 110.934,325.549 110.511 C 325.607 110.270,325.631 104.993,325.601 98.783 L 325.547 87.494 322.964 87.440 C 321.005 87.398,320.359 87.445,320.289 87.634 M254.793 96.642 L 254.891 105.596 259.124 105.649 L 263.358 105.701 263.358 108.130 L 263.358 110.560 256.642 110.560 L 249.927 110.560 249.927 99.069 L 249.927 87.579 252.311 87.634 L 254.696 87.689 254.793 96.642 M125.205 99.011 C 125.179 105.238,125.211 110.472,125.276 110.641 C 125.375 110.897,125.771 110.949,127.625 110.949 C 130.785 110.949,130.608 111.151,130.608 107.544 L 130.608 104.543 132.019 104.471 L 133.431 104.399 131.971 104.413 L 130.511 104.428 130.457 107.494 L 130.404 110.560 127.880 110.560 L 125.356 110.560 125.304 99.124 L 125.252 87.689 125.205 99.011 M187.132 90.219 C 187.132 91.611,187.163 92.155,187.200 91.427 C 187.238 90.700,187.238 89.562,187.200 88.897 C 187.162 88.232,187.131 88.827,187.132 90.219 M217.424 89.457 C 217.426 89.662,217.516 89.961,217.624 90.122 C 217.769 90.335,217.787 90.256,217.691 89.830 C 217.531 89.114,217.420 88.959,217.424 89.457 M172.080 89.573 C 172.064 89.758,173.233 92.263,173.335 92.263 C 173.450 92.263,173.257 91.786,172.627 90.520 C 172.332 89.926,172.086 89.500,172.080 89.573 M211.020 90.057 C 211.008 90.182,210.941 90.445,210.872 90.641 C 210.774 90.918,210.800 90.948,210.987 90.775 C 211.120 90.652,211.187 90.390,211.136 90.191 C 211.085 89.992,211.033 89.932,211.020 90.057 M141.469 95.668 C 141.517 100.141,141.477 101.109,141.223 101.718 C 140.867 102.570,140.991 102.897,141.357 102.071 C 141.642 101.427,141.830 91.093,141.566 90.620 C 141.481 90.467,141.437 92.739,141.469 95.668 M217.813 90.819 C 217.815 91.024,217.905 91.324,218.014 91.484 C 218.158 91.697,218.176 91.619,218.081 91.192 C 217.921 90.477,217.809 90.321,217.813 90.819 M244.756 95.864 C 244.756 98.540,244.783 99.662,244.817 98.357 C 244.850 97.052,244.851 94.862,244.817 93.491 C 244.784 92.119,244.756 93.187,244.756 95.864 M289.715 94.404 C 289.715 96.277,289.744 97.044,289.780 96.107 C 289.816 95.170,289.816 93.637,289.780 92.701 C 289.744 91.764,289.715 92.530,289.715 94.404 M210.511 91.873 C 210.438 92.104,210.422 92.336,210.475 92.389 C 210.529 92.443,210.633 92.298,210.706 92.068 C 210.779 91.838,210.795 91.606,210.741 91.552 C 210.688 91.499,210.584 91.643,210.511 91.873 M130.458 95.912 L 130.511 99.173 133.041 99.228 C 135.657 99.285,136.448 99.119,136.448 98.513 C 136.448 98.295,136.363 98.331,136.145 98.643 C 135.857 99.054,135.709 99.075,133.216 99.075 L 130.590 99.075 130.648 95.863 C 130.680 94.097,130.638 92.652,130.555 92.652 C 130.472 92.652,130.428 94.119,130.458 95.912 M135.604 92.847 C 135.836 92.940,136.118 93.175,136.230 93.370 C 136.368 93.607,136.438 93.634,136.442 93.452 C 136.449 93.124,135.877 92.662,135.474 92.671 C 135.307 92.674,135.362 92.749,135.604 92.847 M192.656 101.542 C 192.693 107.779,192.774 110.511,192.928 110.696 C 193.095 110.898,193.704 110.948,195.503 110.906 L 197.859 110.852 197.910 101.908 C 197.948 95.062,198.017 92.924,198.202 92.793 C 198.378 92.668,198.365 92.644,198.151 92.702 C 197.898 92.771,197.852 93.964,197.808 101.671 L 197.758 110.560 195.327 110.560 L 192.895 110.560 192.895 101.606 C 192.895 96.681,192.830 92.652,192.749 92.652 C 192.669 92.652,192.627 96.652,192.656 101.542 M239.376 95.863 L 239.434 99.075 236.457 99.118 L 233.479 99.161 236.204 99.223 C 240.164 99.313,239.805 99.617,239.805 96.168 C 239.805 93.412,239.727 92.652,239.444 92.652 C 239.375 92.652,239.345 94.097,239.376 95.863 M294.826 92.782 C 294.591 93.017,294.681 96.258,294.929 96.506 C 295.096 96.672,296.066 96.727,298.287 96.696 L 301.411 96.653 298.408 96.594 C 296.606 96.558,295.302 96.449,295.147 96.321 C 294.798 96.031,294.786 92.921,295.134 92.781 C 295.270 92.726,295.284 92.676,295.166 92.667 C 295.050 92.659,294.897 92.710,294.826 92.782 M210.157 93.116 C 210.084 93.306,210.030 93.609,210.037 93.787 C 210.045 94.002,210.112 93.953,210.237 93.642 C 210.340 93.384,210.395 93.081,210.358 92.971 C 210.321 92.860,210.231 92.925,210.157 93.116 M218.696 93.917 C 218.750 94.238,218.964 95.027,219.173 95.669 C 219.382 96.311,219.508 96.574,219.455 96.253 C 219.401 95.932,219.186 95.144,218.978 94.501 C 218.769 93.859,218.642 93.596,218.696 93.917 M136.520 95.961 C 136.520 97.085,136.552 97.545,136.591 96.983 C 136.631 96.421,136.631 95.501,136.591 94.939 C 136.552 94.377,136.520 94.837,136.520 95.961 M209.670 95.023 C 209.555 95.479,209.494 95.885,209.535 95.926 C 209.576 95.967,209.709 95.632,209.830 95.182 C 209.951 94.733,210.012 94.326,209.965 94.280 C 209.919 94.233,209.786 94.568,209.670 95.023 M174.652 95.134 C 174.693 95.214,174.878 95.608,175.062 96.010 C 175.245 96.411,175.440 96.740,175.495 96.740 C 175.550 96.740,175.561 96.674,175.519 96.594 C 175.477 96.513,175.292 96.119,175.109 95.718 C 174.925 95.316,174.730 94.988,174.675 94.988 C 174.620 94.988,174.610 95.054,174.652 95.134 M151.680 96.350 C 151.746 96.592,152.317 96.651,155.010 96.696 L 158.260 96.749 158.205 99.129 L 158.151 101.509 154.891 101.562 C 153.097 101.591,151.630 101.679,151.630 101.757 C 151.630 101.834,153.141 101.854,154.988 101.800 L 158.345 101.703 158.345 99.173 L 158.345 96.642 155.142 96.589 C 152.891 96.551,151.889 96.464,151.770 96.297 C 151.647 96.125,151.623 96.139,151.680 96.350 M209.272 96.383 C 209.258 96.562,209.189 96.868,209.120 97.064 C 209.023 97.340,209.048 97.371,209.234 97.200 C 209.365 97.079,209.434 96.772,209.386 96.519 C 209.338 96.266,209.287 96.205,209.272 96.383 M301.617 96.952 C 301.677 97.050,301.843 97.129,301.986 97.129 C 302.130 97.129,302.524 97.445,302.863 97.831 C 303.202 98.217,303.517 98.494,303.564 98.447 C 303.705 98.306,302.290 96.980,301.884 96.874 C 301.677 96.820,301.557 96.855,301.617 96.952 M219.576 97.263 C 219.568 97.498,219.650 97.744,219.757 97.810 C 219.987 97.953,219.987 97.762,219.757 97.226 C 219.595 96.851,219.589 96.852,219.576 97.263 M214.151 97.363 C 214.022 97.491,213.923 97.776,213.930 97.995 C 213.941 98.372,213.952 98.369,214.118 97.956 C 214.215 97.715,214.384 97.518,214.495 97.518 C 214.605 97.518,214.696 97.431,214.696 97.324 C 214.696 97.060,214.435 97.078,214.151 97.363 M175.962 97.784 C 175.961 98.065,176.800 99.465,176.970 99.465 C 177.183 99.465,177.173 99.125,176.958 99.043 C 176.864 99.007,176.601 98.672,176.375 98.297 C 176.148 97.922,175.962 97.691,175.962 97.784 M208.879 97.843 C 208.867 97.968,208.800 98.231,208.730 98.427 C 208.633 98.704,208.659 98.734,208.846 98.561 C 208.979 98.438,209.046 98.176,208.995 97.977 C 208.943 97.778,208.891 97.718,208.879 97.843 M214.702 98.102 C 214.702 98.263,214.787 98.526,214.891 98.686 C 215.058 98.946,215.079 98.946,215.079 98.686 C 215.079 98.526,214.994 98.263,214.891 98.102 C 214.723 97.843,214.702 97.843,214.702 98.102 M219.954 98.605 C 219.956 98.810,220.046 99.109,220.155 99.270 C 220.299 99.483,220.317 99.405,220.222 98.978 C 220.062 98.262,219.950 98.107,219.954 98.605 M213.658 98.816 C 213.586 98.887,213.534 99.128,213.540 99.351 C 213.552 99.724,213.568 99.719,213.739 99.290 C 213.930 98.814,213.890 98.583,213.658 98.816 M289.837 98.766 C 289.820 99.155,290.819 100.598,291.330 100.922 C 291.811 101.227,291.792 101.180,291.166 100.512 C 290.777 100.097,290.320 99.494,290.152 99.173 C 289.983 98.852,289.842 98.669,289.837 98.766 M208.384 99.576 C 208.312 99.861,208.291 100.132,208.337 100.178 C 208.383 100.224,208.479 100.028,208.551 99.743 C 208.622 99.458,208.643 99.187,208.597 99.141 C 208.551 99.095,208.455 99.291,208.384 99.576 M215.204 99.757 C 215.364 100.472,215.475 100.628,215.471 100.130 C 215.470 99.925,215.380 99.625,215.271 99.465 C 215.127 99.251,215.109 99.330,215.204 99.757 M304.122 103.552 C 304.122 105.854,304.150 106.796,304.184 105.645 C 304.219 104.494,304.219 102.611,304.184 101.460 C 304.150 100.309,304.122 101.251,304.122 103.552 M213.260 100.348 C 213.193 100.522,213.146 100.811,213.155 100.989 C 213.165 101.168,213.249 101.055,213.344 100.740 C 213.527 100.125,213.462 99.821,213.260 100.348 M208.016 100.902 C 207.943 101.092,207.889 101.395,207.896 101.573 C 207.904 101.788,207.971 101.739,208.096 101.428 C 208.199 101.169,208.253 100.867,208.216 100.756 C 208.180 100.646,208.089 100.711,208.016 100.902 M215.646 101.454 C 215.736 101.994,215.763 102.022,215.824 101.632 C 215.864 101.379,215.816 101.091,215.718 100.993 C 215.610 100.885,215.582 101.067,215.646 101.454 M220.757 101.411 C 220.757 101.572,220.833 101.878,220.925 102.092 C 221.030 102.338,221.092 102.374,221.092 102.190 C 221.092 102.029,221.017 101.723,220.925 101.509 C 220.819 101.263,220.757 101.227,220.757 101.411 M295.961 101.790 L 298.881 101.898 298.937 103.695 L 298.993 105.492 294.362 105.544 L 289.732 105.596 289.678 108.002 C 289.641 109.609,289.697 110.497,289.847 110.678 C 290.106 110.990,299.729 111.059,300.438 110.754 C 300.668 110.655,298.580 110.581,295.328 110.573 L 289.830 110.560 289.830 108.130 L 289.830 105.700 294.453 105.648 L 299.075 105.596 299.075 103.650 L 299.075 101.703 296.058 101.693 L 293.041 101.682 295.961 101.790 M207.529 102.809 C 207.414 103.264,207.353 103.671,207.394 103.712 C 207.435 103.753,207.567 103.418,207.689 102.968 C 207.810 102.519,207.871 102.112,207.824 102.066 C 207.778 102.019,207.645 102.354,207.529 102.809 M213.872 102.136 C 214.222 102.180,214.747 102.179,215.040 102.134 C 215.332 102.090,215.046 102.054,214.404 102.055 C 213.762 102.057,213.522 102.093,213.872 102.136 M221.238 103.163 C 221.304 103.538,221.437 103.976,221.534 104.136 C 221.741 104.482,221.542 103.473,221.284 102.871 C 221.172 102.608,221.157 102.703,221.238 103.163 M140.628 102.976 C 140.559 103.088,140.160 103.395,139.740 103.660 C 139.321 103.925,138.978 104.228,138.978 104.333 C 138.978 104.439,139.131 104.393,139.319 104.232 C 139.506 104.071,139.966 103.679,140.341 103.362 C 140.715 103.045,140.961 102.783,140.887 102.779 C 140.813 102.776,140.697 102.865,140.628 102.976 M207.127 104.169 C 207.115 104.348,207.054 104.654,206.993 104.850 C 206.886 105.188,206.892 105.189,207.103 104.860 C 207.225 104.669,207.286 104.363,207.238 104.179 C 207.158 103.877,207.148 103.876,207.127 104.169 M237.670 104.282 C 235.585 104.314,233.815 104.403,233.737 104.481 C 233.659 104.559,235.423 104.579,237.658 104.526 C 239.892 104.472,241.786 104.363,241.866 104.282 C 241.946 104.202,241.887 104.156,241.736 104.180 C 241.584 104.205,239.754 104.251,237.670 104.282 M221.703 104.968 C 221.703 105.247,221.794 105.532,221.906 105.601 C 222.038 105.683,222.062 105.536,221.976 105.174 C 221.796 104.429,221.703 104.358,221.703 104.968 M151.630 105.547 C 151.630 105.628,153.754 105.675,156.350 105.653 C 161.056 105.613,160.510 105.547,154.696 105.452 C 153.009 105.424,151.630 105.467,151.630 105.547 M206.738 105.532 C 206.725 105.710,206.665 106.017,206.603 106.213 C 206.497 106.551,206.503 106.551,206.714 106.223 C 206.836 106.032,206.897 105.725,206.848 105.541 C 206.769 105.240,206.758 105.239,206.738 105.532 M134.314 106.472 C 134.548 107.061,134.827 107.788,134.935 108.088 C 135.042 108.388,135.168 108.595,135.214 108.550 C 135.317 108.446,134.316 105.864,134.069 105.596 C 133.970 105.489,134.081 105.883,134.314 106.472 M222.109 106.375 C 222.103 106.589,222.183 106.895,222.287 107.056 C 222.537 107.443,222.537 106.957,222.287 106.375 L 222.120 105.985 222.109 106.375 M268.446 107.153 C 268.446 107.367,268.521 107.718,268.613 107.932 L 268.780 108.321 268.780 107.932 C 268.780 107.718,268.705 107.367,268.613 107.153 L 268.446 106.764 268.446 107.153 M211.387 107.392 C 211.386 107.475,212.676 107.516,214.253 107.483 C 216.828 107.430,217.146 107.460,217.385 107.775 C 217.637 108.108,217.647 108.107,217.582 107.737 C 217.511 107.335,211.387 106.993,211.387 107.392 M222.498 107.737 C 222.493 107.951,222.573 108.258,222.676 108.418 C 222.926 108.805,222.926 108.319,222.676 107.737 L 222.509 107.348 222.498 107.737 M210.998 108.516 C 210.998 108.783,211.031 109.002,211.072 109.002 C 211.113 109.002,211.189 108.783,211.240 108.516 C 211.291 108.248,211.257 108.029,211.165 108.029 C 211.073 108.029,210.998 108.248,210.998 108.516 M205.839 108.808 C 205.766 109.038,205.750 109.270,205.804 109.324 C 205.857 109.377,205.961 109.233,206.034 109.002 C 206.107 108.772,206.123 108.540,206.070 108.486 C 206.016 108.433,205.912 108.578,205.839 108.808 M268.985 108.775 C 269.090 108.971,269.329 109.256,269.516 109.408 C 269.726 109.579,269.679 109.443,269.392 109.051 C 268.881 108.353,268.689 108.223,268.985 108.775 M283.516 109.349 C 282.830 110.172,282.816 110.207,283.387 109.684 C 283.927 109.188,284.520 108.404,284.338 108.425 C 284.307 108.428,283.937 108.844,283.516 109.349 M217.629 108.748 C 217.673 109.253,217.978 109.682,217.991 109.257 C 217.999 109.023,217.917 108.777,217.810 108.710 C 217.703 108.644,217.622 108.661,217.629 108.748 M302.861 109.513 C 302.492 109.900,302.365 110.111,302.579 109.981 C 302.931 109.767,303.765 108.808,303.600 108.808 C 303.562 108.808,303.230 109.125,302.861 109.513 M222.877 109.197 C 222.877 109.358,222.962 109.620,223.066 109.781 C 223.233 110.041,223.254 110.041,223.254 109.781 C 223.254 109.620,223.169 109.358,223.066 109.197 C 222.898 108.938,222.877 108.938,222.877 109.197 M210.730 109.497 C 210.663 109.671,210.616 109.959,210.625 110.138 C 210.634 110.316,210.719 110.204,210.813 109.888 C 210.997 109.274,210.932 108.970,210.730 109.497 M135.669 109.964 C 135.669 110.704,136.416 110.949,138.670 110.949 C 141.111 110.949,141.516 110.869,141.493 110.393 C 141.483 110.191,141.442 110.163,141.380 110.316 C 141.226 110.698,136.058 110.662,136.058 110.279 C 136.058 110.125,135.971 109.945,135.864 109.878 C 135.757 109.812,135.669 109.851,135.669 109.964 M205.451 110.169 C 205.383 110.382,205.382 110.645,205.449 110.753 C 205.606 111.006,210.022 111.007,210.414 110.754 C 210.610 110.627,209.859 110.565,208.113 110.563 C 205.610 110.560,205.525 110.546,205.645 110.170 C 205.713 109.956,205.725 109.781,205.671 109.781 C 205.617 109.781,205.518 109.955,205.451 110.169 M218.018 109.940 C 217.973 110.822,218.310 110.949,220.688 110.946 C 221.942 110.944,223.100 110.858,223.260 110.754 C 223.457 110.627,222.721 110.565,221.003 110.563 C 218.553 110.560,218.445 110.543,218.242 110.122 C 218.126 109.881,218.025 109.799,218.018 109.940 M272.214 110.754 C 272.428 110.846,274.399 110.922,276.594 110.922 C 278.788 110.922,280.759 110.846,280.973 110.754 C 281.204 110.655,279.425 110.587,276.594 110.587 C 273.762 110.587,271.983 110.655,272.214 110.754 " stroke="none" fill="#648cd4" fill-rule="evenodd"></path><path id="path3" d="M83.820 78.742 C 83.638 79.215,83.678 79.357,83.901 79.027 C 84.066 78.781,84.176 78.828,84.596 79.319 C 84.871 79.640,85.008 79.727,84.901 79.511 C 84.542 78.786,83.961 78.373,83.820 78.742 M81.394 83.999 C 81.068 84.714,81.130 84.867,81.483 84.216 C 81.648 83.912,81.746 83.627,81.701 83.583 C 81.657 83.538,81.519 83.725,81.394 83.999 M88.539 85.742 C 88.645 85.956,88.873 86.307,89.048 86.521 L 89.365 86.910 89.173 86.521 C 89.068 86.307,88.840 85.956,88.665 85.742 L 88.348 85.353 88.539 85.742 M125.288 87.332 C 125.217 87.403,125.159 87.556,125.161 87.672 C 125.163 87.792,125.233 87.775,125.323 87.632 C 125.449 87.434,126.848 87.393,132.017 87.438 C 135.611 87.469,138.511 87.428,138.462 87.348 C 138.350 87.168,125.468 87.152,125.288 87.332 M153.625 87.347 L 160.973 87.401 160.973 90.023 L 160.973 92.645 156.448 92.702 L 151.922 92.760 156.496 92.755 L 161.071 92.749 161.071 90.024 L 161.071 87.299 153.674 87.296 L 146.277 87.292 153.625 87.347 M165.887 87.363 C 165.487 87.617,165.633 110.786,166.034 110.908 C 166.270 110.980,166.279 110.948,166.083 110.740 C 165.826 110.468,165.706 88.359,165.958 87.704 C 166.057 87.446,166.476 87.397,168.583 87.397 L 171.090 87.397 171.764 88.710 C 172.135 89.433,172.443 89.962,172.448 89.885 C 172.463 89.668,171.828 88.331,171.429 87.737 L 171.068 87.202 168.600 87.205 C 167.242 87.207,166.021 87.278,165.887 87.363 M176.973 87.436 C 176.803 87.606,176.737 89.152,176.731 93.129 L 176.722 98.589 176.337 97.859 C 176.125 97.457,175.905 97.129,175.847 97.129 C 175.789 97.129,175.980 97.567,176.272 98.102 C 177.097 99.619,177.129 99.438,177.129 93.236 L 177.129 87.397 179.639 87.397 C 181.747 87.397,182.167 87.446,182.266 87.704 C 182.480 88.262,182.401 110.166,182.183 110.572 C 182.067 110.789,182.058 110.949,182.162 110.949 C 182.261 110.949,182.396 110.810,182.461 110.641 C 182.675 110.083,182.595 87.985,182.378 87.578 C 182.133 87.122,177.412 86.997,176.973 87.436 M187.186 87.332 C 187.114 87.403,187.057 87.556,187.059 87.672 C 187.061 87.799,187.123 87.787,187.215 87.642 C 187.332 87.458,189.300 87.388,195.533 87.348 L 203.698 87.295 195.507 87.248 C 191.002 87.223,187.257 87.260,187.186 87.332 M211.630 87.584 C 211.496 87.799,211.388 88.086,211.390 88.221 C 211.391 88.356,211.503 88.248,211.638 87.981 C 211.929 87.405,216.704 87.101,217.080 87.634 C 217.214 87.824,217.237 87.814,217.176 87.591 C 217.036 87.073,211.952 87.067,211.630 87.584 M228.216 87.445 C 227.978 88.068,228.227 110.820,228.472 110.869 C 228.609 110.897,228.630 110.875,228.521 110.821 C 228.388 110.755,228.321 106.827,228.321 99.050 L 228.321 87.378 235.128 87.436 C 238.871 87.468,241.784 87.434,241.600 87.362 C 240.941 87.101,228.317 87.180,228.216 87.445 M249.673 87.326 C 249.489 87.510,249.500 110.708,249.684 110.822 C 249.764 110.871,249.806 105.621,249.778 99.154 L 249.726 87.397 252.355 87.397 L 254.984 87.397 255.035 96.399 L 255.085 105.401 259.270 105.499 L 263.455 105.596 263.510 108.111 C 263.551 109.993,263.502 110.666,263.315 110.785 C 263.132 110.901,263.156 110.944,263.406 110.946 C 263.898 110.950,263.930 105.611,263.439 105.422 C 263.270 105.357,261.344 105.304,259.159 105.304 L 255.186 105.304 255.136 96.302 L 255.085 87.299 252.446 87.245 C 250.995 87.216,249.747 87.252,249.673 87.326 M268.359 87.326 C 268.177 87.508,268.191 107.482,268.373 107.768 C 268.451 107.891,268.492 103.358,268.462 97.695 L 268.409 87.397 271.041 87.397 L 273.674 87.397 273.674 96.448 L 273.674 105.499 276.592 105.499 L 279.509 105.499 279.560 96.496 L 279.611 87.494 282.195 87.440 L 284.779 87.385 284.725 97.694 C 284.696 103.363,284.738 107.883,284.819 107.738 C 284.901 107.592,284.944 102.934,284.917 97.386 L 284.866 87.299 282.141 87.299 L 279.416 87.299 279.365 96.302 L 279.315 105.304 276.594 105.304 L 273.873 105.304 273.822 96.302 L 273.771 87.299 271.133 87.245 C 269.681 87.216,268.433 87.252,268.359 87.326 M293.011 87.349 C 292.887 87.429,295.361 87.467,298.510 87.434 L 304.234 87.375 304.234 90.014 L 304.234 92.652 299.870 92.652 C 294.482 92.652,294.891 92.502,294.891 94.483 C 294.891 96.605,294.797 96.548,298.190 96.531 C 299.953 96.523,300.875 96.455,300.633 96.350 C 300.418 96.258,299.078 96.177,297.654 96.169 L 295.065 96.156 295.093 94.842 C 295.140 92.645,294.657 92.847,299.872 92.847 L 304.439 92.847 304.385 90.073 L 304.331 87.299 298.783 87.252 C 295.732 87.226,293.135 87.270,293.011 87.349 M309.099 87.342 C 309.099 87.426,310.282 87.467,311.727 87.435 L 314.355 87.376 314.355 91.652 C 314.355 94.005,314.408 96.068,314.473 96.237 C 314.613 96.600,319.877 96.706,320.097 96.350 C 320.175 96.224,319.225 96.156,317.387 96.156 L 314.557 96.156 314.505 91.727 L 314.453 87.299 311.776 87.245 C 310.304 87.215,309.100 87.259,309.099 87.342 M320.322 87.348 C 320.272 87.428,321.441 87.494,322.920 87.494 C 324.398 87.494,325.567 87.428,325.517 87.348 C 325.468 87.268,324.299 87.202,322.920 87.202 C 321.541 87.202,320.372 87.268,320.322 87.348 M146.271 99.075 C 146.271 105.445,146.296 108.051,146.326 104.866 C 146.356 101.681,146.356 96.470,146.326 93.285 C 146.296 90.100,146.271 92.706,146.271 99.075 M203.676 90.122 C 203.676 91.460,203.707 92.007,203.745 91.338 C 203.783 90.669,203.783 89.574,203.745 88.905 C 203.707 88.236,203.676 88.783,203.676 90.122 M140.275 88.559 C 140.579 88.878,141.029 89.513,141.275 89.971 C 141.521 90.428,141.662 90.584,141.589 90.316 C 141.406 89.652,140.425 88.249,140.039 88.101 C 139.863 88.034,139.968 88.237,140.275 88.559 M217.243 88.175 C 217.249 88.336,217.329 88.642,217.421 88.856 L 217.588 89.246 217.599 88.856 C 217.605 88.642,217.525 88.336,217.421 88.175 C 217.253 87.916,217.233 87.916,217.243 88.175 M290.881 88.430 C 290.344 88.991,289.830 89.769,289.830 90.019 C 289.831 90.129,290.015 89.912,290.240 89.538 C 290.465 89.163,290.881 88.663,291.164 88.425 C 291.447 88.188,291.591 87.997,291.484 87.999 C 291.377 88.002,291.106 88.196,290.881 88.430 M211.131 89.028 C 211.057 89.219,211.003 89.521,211.010 89.700 C 211.018 89.915,211.086 89.866,211.210 89.554 C 211.313 89.296,211.368 88.994,211.331 88.883 C 211.294 88.772,211.204 88.838,211.131 89.028 M244.030 89.227 C 244.222 89.484,244.408 89.668,244.442 89.635 C 244.544 89.537,244.007 88.759,243.837 88.759 C 243.751 88.759,243.837 88.970,244.030 89.227 M217.629 89.672 C 217.673 90.177,217.978 90.606,217.991 90.182 C 217.999 89.947,217.917 89.701,217.810 89.635 C 217.703 89.569,217.622 89.586,217.629 89.672 M77.410 90.268 C 77.255 91.056,77.587 91.265,78.104 90.705 L 78.540 90.233 78.102 90.597 C 77.651 90.972,77.596 90.919,77.657 90.170 C 77.706 89.556,77.536 89.623,77.410 90.268 M244.708 90.790 C 245.051 92.398,244.828 101.392,244.427 102.131 C 243.878 103.140,243.203 103.750,242.204 104.141 C 241.687 104.342,241.440 104.510,241.655 104.513 C 243.071 104.535,244.757 102.534,244.965 100.585 C 245.176 98.607,244.999 90.370,244.740 90.112 C 244.571 89.943,244.563 90.110,244.708 90.790 M75.750 90.292 C 75.578 90.401,75.686 90.449,76.072 90.435 C 76.391 90.423,76.612 90.348,76.563 90.268 C 76.445 90.076,76.074 90.087,75.750 90.292 M92.652 90.196 C 92.652 90.405,93.231 91.484,93.343 91.484 C 93.397 91.484,93.296 91.200,93.119 90.852 C 92.758 90.141,92.652 89.993,92.652 90.196 M289.563 90.754 C 289.403 91.352,289.435 98.117,289.600 98.533 C 289.673 98.717,289.732 96.943,289.732 94.592 C 289.732 92.241,289.721 90.317,289.706 90.316 C 289.692 90.316,289.628 90.513,289.563 90.754 M210.631 90.933 C 210.618 91.112,210.558 91.418,210.496 91.614 C 210.390 91.952,210.396 91.953,210.607 91.624 C 210.729 91.433,210.790 91.127,210.741 90.943 C 210.662 90.641,210.651 90.640,210.631 90.933 M218.112 91.192 C 218.166 91.513,218.380 92.302,218.589 92.944 C 218.798 93.586,218.924 93.849,218.871 93.528 C 218.817 93.207,218.602 92.418,218.394 91.776 C 218.185 91.134,218.059 90.871,218.112 91.192 M141.787 96.058 C 141.787 98.521,141.815 99.501,141.849 98.237 C 141.883 96.973,141.882 94.959,141.848 93.760 C 141.814 92.562,141.786 93.596,141.787 96.058 M210.242 92.296 C 210.229 92.474,210.169 92.781,210.107 92.977 C 210.001 93.315,210.007 93.315,210.217 92.987 C 210.340 92.796,210.400 92.489,210.352 92.305 C 210.273 92.004,210.262 92.003,210.242 92.296 M97.129 92.838 C 97.290 92.946,97.589 93.037,97.794 93.038 C 98.292 93.042,98.137 92.931,97.421 92.771 C 96.994 92.675,96.916 92.694,97.129 92.838 M130.745 92.783 C 130.690 92.871,131.646 92.917,132.870 92.884 C 134.613 92.836,135.231 92.891,135.723 93.135 C 136.326 93.435,136.337 93.434,136.003 93.098 C 135.629 92.722,130.957 92.441,130.745 92.783 M174.018 93.437 C 174.238 93.869,174.505 94.451,174.611 94.729 C 174.717 95.008,174.851 95.189,174.909 95.132 C 175.021 95.020,173.881 92.652,173.716 92.652 C 173.662 92.652,173.798 93.005,174.018 93.437 M189.684 92.835 L 192.409 92.944 192.506 101.882 C 192.590 109.595,192.643 110.832,192.895 110.916 C 193.134 110.995,193.143 110.959,192.946 110.720 C 192.764 110.499,192.692 108.271,192.654 101.588 L 192.603 92.749 189.781 92.738 L 186.959 92.727 189.684 92.835 M198.203 92.810 C 197.934 92.981,197.737 110.949,198.005 110.949 C 198.085 110.949,198.152 106.985,198.154 102.141 C 198.155 97.297,198.225 93.227,198.308 93.096 C 198.411 92.934,199.288 92.839,201.078 92.798 L 203.698 92.737 201.071 92.698 C 199.625 92.676,198.335 92.726,198.203 92.810 M236.443 92.795 L 239.212 92.857 239.273 95.967 L 239.334 99.076 239.326 95.913 L 239.319 92.749 236.496 92.741 L 233.674 92.732 236.443 92.795 M151.673 94.501 C 151.622 96.643,151.429 96.526,155.142 96.589 L 158.345 96.642 158.345 99.173 L 158.345 101.703 155.036 101.800 L 151.727 101.898 151.727 103.650 L 151.727 105.401 156.361 105.454 L 160.994 105.506 160.935 108.218 C 160.902 109.710,160.944 110.862,161.028 110.778 C 161.111 110.694,161.155 109.450,161.125 108.014 L 161.071 105.401 156.448 105.349 L 151.825 105.297 151.825 103.646 L 151.825 101.995 155.113 101.995 C 158.988 101.995,158.637 102.296,158.637 98.969 C 158.637 95.992,158.857 96.156,154.863 96.156 L 151.841 96.156 151.775 94.550 L 151.709 92.944 151.673 94.501 M233.655 96.058 C 233.656 97.771,233.685 98.446,233.722 97.558 C 233.758 96.669,233.758 95.268,233.721 94.443 C 233.685 93.619,233.655 94.345,233.655 96.058 M101.365 93.763 C 101.607 93.810,101.957 93.808,102.143 93.759 C 102.329 93.710,102.131 93.672,101.703 93.674 C 101.275 93.677,101.123 93.716,101.365 93.763 M136.328 95.961 C 136.328 97.299,136.359 97.847,136.397 97.178 C 136.435 96.509,136.435 95.414,136.397 94.745 C 136.359 94.075,136.328 94.623,136.328 95.961 M103.958 94.086 C 104.002 94.125,104.389 94.211,104.818 94.276 C 105.360 94.359,105.478 94.341,105.207 94.218 C 104.833 94.049,103.791 93.939,103.958 94.086 M106.861 94.599 C 107.527 94.812,108.039 94.812,107.543 94.599 C 107.328 94.507,106.978 94.434,106.764 94.437 C 106.451 94.442,106.470 94.473,106.861 94.599 M101.800 95.792 C 103.198 95.977,109.219 96.095,109.042 95.934 C 108.967 95.866,107.066 95.774,104.818 95.730 C 102.569 95.686,101.212 95.714,101.800 95.792 M219.486 96.253 C 219.646 96.969,219.758 97.124,219.754 96.626 C 219.752 96.421,219.662 96.122,219.553 95.961 C 219.409 95.748,219.391 95.827,219.486 96.253 M109.392 96.958 C 108.713 97.553,108.713 97.554,109.337 97.138 C 109.682 96.909,110.016 96.638,110.079 96.536 C 110.266 96.232,110.111 96.328,109.392 96.958 M208.978 96.845 C 208.911 97.018,208.864 97.307,208.873 97.486 C 208.882 97.664,208.967 97.552,209.061 97.236 C 209.245 96.622,209.180 96.318,208.978 96.845 M302.837 97.530 C 303.193 97.885,303.649 98.488,303.850 98.869 C 304.052 99.250,304.220 99.451,304.225 99.315 C 304.239 98.914,303.265 97.565,302.706 97.210 C 302.266 96.931,302.285 96.978,302.837 97.530 M219.875 97.616 C 220.036 98.331,220.147 98.487,220.143 97.989 C 220.141 97.783,220.051 97.484,219.942 97.324 C 219.798 97.110,219.780 97.189,219.875 97.616 M214.242 97.648 C 214.024 97.865,214.096 98.037,214.404 98.037 C 214.564 98.037,214.696 97.921,214.696 97.778 C 214.696 97.501,214.457 97.433,214.242 97.648 M63.066 97.860 C 63.066 97.947,63.328 98.173,63.650 98.363 C 63.971 98.553,64.234 98.676,64.234 98.636 C 64.234 98.597,63.971 98.370,63.650 98.133 C 63.328 97.896,63.066 97.773,63.066 97.860 M208.589 98.207 C 208.522 98.381,208.475 98.669,208.484 98.848 C 208.493 99.027,208.578 98.914,208.672 98.599 C 208.856 97.984,208.791 97.680,208.589 98.207 M213.940 98.524 C 213.927 98.703,213.867 99.009,213.805 99.205 C 213.699 99.543,213.705 99.544,213.916 99.215 C 214.038 99.025,214.099 98.718,214.050 98.534 C 213.971 98.233,213.960 98.232,213.940 98.524 M106.326 98.903 C 105.663 99.328,105.448 99.613,106.034 99.291 C 106.481 99.046,107.180 98.505,107.056 98.501 C 107.002 98.499,106.674 98.680,106.326 98.903 M214.819 98.978 C 215.024 99.904,215.303 100.461,215.161 99.659 C 215.095 99.285,214.962 98.847,214.865 98.686 C 214.751 98.495,214.735 98.596,214.819 98.978 M220.160 98.821 C 220.204 99.326,220.508 99.755,220.522 99.330 C 220.529 99.096,220.448 98.850,220.341 98.783 C 220.234 98.717,220.152 98.734,220.160 98.821 M171.052 104.975 C 171.022 108.240,171.063 110.871,171.144 110.822 C 171.224 110.772,171.290 108.301,171.290 105.332 C 171.290 101.845,171.361 99.860,171.492 99.729 C 171.633 99.588,171.605 99.451,171.401 99.282 C 171.139 99.064,171.100 99.699,171.052 104.975 M289.832 99.192 C 289.827 99.661,291.040 101.036,291.822 101.452 C 292.562 101.845,292.985 101.900,295.725 101.961 L 298.799 102.030 298.742 103.618 L 298.686 105.207 294.112 105.313 C 291.596 105.372,289.513 105.437,289.484 105.459 C 289.245 105.634,289.574 110.832,289.830 110.916 C 290.072 110.996,290.080 110.961,289.872 110.710 C 289.692 110.491,289.638 109.740,289.678 108.002 L 289.732 105.596 294.362 105.544 L 298.993 105.492 298.937 103.695 L 298.881 101.898 295.766 101.800 C 292.150 101.687,291.262 101.361,290.328 99.803 C 290.056 99.349,289.833 99.074,289.832 99.192 M104.818 99.854 C 104.496 100.067,104.321 100.239,104.428 100.238 C 104.623 100.235,105.682 99.476,105.499 99.470 C 105.445 99.469,105.139 99.641,104.818 99.854 M213.554 99.887 C 213.540 100.065,213.471 100.372,213.402 100.568 C 213.305 100.843,213.331 100.874,213.516 100.704 C 213.648 100.582,213.716 100.276,213.668 100.022 C 213.620 99.769,213.569 99.708,213.554 99.887 M208.100 100.081 C 208.088 100.260,208.027 100.567,207.966 100.763 C 207.860 101.101,207.865 101.101,208.076 100.772 C 208.199 100.582,208.259 100.275,208.211 100.091 C 208.132 99.790,208.121 99.789,208.100 100.081 M220.657 100.438 C 220.725 100.813,220.857 101.294,220.951 101.509 C 221.068 101.776,221.082 101.684,220.998 101.217 C 220.930 100.842,220.797 100.360,220.704 100.146 C 220.587 99.879,220.572 99.970,220.657 100.438 M304.315 103.650 C 304.315 105.791,304.344 106.693,304.379 105.655 C 304.413 104.617,304.414 102.865,304.379 101.762 C 304.344 100.659,304.316 101.509,304.315 103.650 M215.307 100.633 C 215.307 100.793,215.382 101.100,215.474 101.314 C 215.580 101.559,215.642 101.595,215.642 101.411 C 215.642 101.251,215.566 100.944,215.474 100.730 C 215.369 100.485,215.307 100.449,215.307 100.633 M63.455 101.119 C 63.455 101.219,64.471 101.667,65.224 101.899 C 65.482 101.978,65.650 101.996,65.596 101.938 C 65.447 101.777,63.455 101.015,63.455 101.119 M141.429 101.705 C 141.234 102.487,140.450 103.486,139.747 103.849 C 139.175 104.145,138.976 104.770,139.375 105.017 C 139.506 105.098,139.533 104.965,139.451 104.639 C 139.374 104.332,139.407 104.136,139.534 104.136 C 140.196 104.136,141.854 101.960,141.652 101.355 C 141.609 101.227,141.509 101.384,141.429 101.705 M207.616 101.825 C 207.453 102.636,207.611 102.793,207.786 101.995 C 207.860 101.659,207.880 101.343,207.830 101.293 C 207.781 101.244,207.684 101.483,207.616 101.825 M213.161 101.557 C 213.140 101.974,213.203 101.993,214.453 101.958 L 215.766 101.920 214.562 101.851 C 213.629 101.798,213.339 101.708,213.271 101.451 C 213.208 101.212,213.178 101.242,213.161 101.557 M315.970 101.945 C 316.805 101.982,318.118 101.982,318.890 101.945 C 319.661 101.908,318.978 101.878,317.372 101.878 C 315.766 101.879,315.135 101.909,315.970 101.945 M100.854 102.401 C 100.602 102.606,100.470 102.771,100.562 102.768 C 100.800 102.759,101.497 102.211,101.397 102.111 C 101.351 102.066,101.107 102.196,100.854 102.401 M221.147 102.190 C 221.147 102.350,221.222 102.657,221.314 102.871 C 221.419 103.116,221.481 103.152,221.481 102.968 C 221.481 102.808,221.406 102.501,221.314 102.287 C 221.208 102.042,221.147 102.006,221.147 102.190 M314.355 106.456 C 314.355 109.686,314.296 110.746,314.112 110.820 C 313.967 110.879,314.006 110.924,314.209 110.934 C 314.524 110.948,314.550 110.616,314.550 106.569 C 314.550 104.161,314.506 102.190,314.453 102.190 C 314.399 102.190,314.355 104.109,314.355 106.456 M95.829 103.017 C 95.612 103.258,95.365 103.586,95.280 103.747 C 95.116 104.057,95.161 104.014,95.949 103.114 C 96.207 102.820,96.374 102.579,96.321 102.579 C 96.267 102.579,96.046 102.776,95.829 103.017 M207.238 103.043 C 207.164 103.233,207.110 103.536,207.117 103.714 C 207.125 103.929,207.193 103.880,207.317 103.569 C 207.420 103.311,207.475 103.008,207.438 102.898 C 207.401 102.787,207.311 102.852,207.238 103.043 M73.414 103.607 C 73.592 103.738,73.898 103.943,74.095 104.065 C 74.571 104.358,74.362 104.536,73.391 104.666 C 72.661 104.764,71.992 105.342,72.278 105.627 C 72.330 105.680,72.434 105.531,72.508 105.297 C 72.623 104.937,72.746 104.887,73.305 104.978 C 73.668 105.037,73.966 105.003,73.966 104.903 C 73.966 104.802,74.097 104.720,74.258 104.720 C 74.739 104.720,74.588 104.190,73.985 103.760 C 73.674 103.539,73.345 103.360,73.255 103.364 C 73.164 103.367,73.236 103.477,73.414 103.607 M221.522 103.687 C 221.566 104.192,221.871 104.621,221.884 104.196 C 221.892 103.962,221.810 103.716,221.703 103.650 C 221.596 103.583,221.515 103.600,221.522 103.687 M72.117 104.331 C 72.331 104.423,72.637 104.498,72.798 104.498 C 72.982 104.498,72.946 104.436,72.701 104.331 C 72.487 104.239,72.180 104.164,72.019 104.164 C 71.835 104.164,71.871 104.225,72.117 104.331 M206.827 104.637 C 206.755 104.922,206.734 105.193,206.780 105.239 C 206.826 105.285,206.922 105.089,206.993 104.804 C 207.065 104.518,207.086 104.247,207.040 104.202 C 206.994 104.156,206.898 104.352,206.827 104.637 M130.608 104.672 C 130.608 104.752,131.181 104.788,131.881 104.752 C 132.693 104.710,133.260 104.773,133.443 104.925 C 133.681 105.123,133.710 105.109,133.609 104.845 C 133.481 104.512,130.609 104.346,130.608 104.672 M233.537 107.835 C 233.505 109.548,233.545 110.949,233.625 110.949 C 233.706 110.949,233.771 109.547,233.771 107.835 C 233.771 103.805,233.612 103.805,233.537 107.835 M96.350 105.101 C 96.511 105.209,96.810 105.300,97.015 105.301 C 97.513 105.305,97.358 105.194,96.642 105.034 C 96.216 104.938,96.137 104.956,96.350 105.101 M222.017 105.401 C 222.177 106.117,222.288 106.273,222.284 105.775 C 222.282 105.569,222.192 105.270,222.084 105.109 C 221.939 104.896,221.921 104.975,222.017 105.401 M139.568 105.499 C 139.568 105.659,139.653 105.922,139.757 106.083 C 139.924 106.342,139.945 106.342,139.945 106.083 C 139.945 105.922,139.860 105.659,139.757 105.499 C 139.589 105.239,139.568 105.239,139.568 105.499 M206.447 105.909 C 206.067 107.154,205.731 108.667,205.815 108.751 C 205.872 108.807,205.975 108.603,206.045 108.295 C 206.115 107.988,206.294 107.306,206.443 106.780 C 206.675 105.959,206.679 105.148,206.447 105.909 M71.946 106.382 C 71.879 106.556,71.832 106.845,71.842 107.023 C 71.851 107.202,71.935 107.090,72.030 106.774 C 72.213 106.159,72.148 105.855,71.946 106.382 M174.652 106.229 C 174.693 106.309,174.878 106.703,175.062 107.105 C 175.245 107.506,175.440 107.835,175.495 107.835 C 175.550 107.835,175.561 107.769,175.519 107.689 C 175.477 107.608,175.292 107.214,175.109 106.813 C 174.925 106.411,174.730 106.083,174.675 106.083 C 174.620 106.083,174.610 106.148,174.652 106.229 M222.406 106.764 C 222.566 107.480,222.677 107.635,222.673 107.137 C 222.672 106.932,222.582 106.633,222.473 106.472 C 222.329 106.259,222.311 106.338,222.406 106.764 M211.376 107.961 C 211.268 108.245,211.213 108.574,211.254 108.691 C 211.295 108.809,211.392 108.620,211.470 108.273 L 211.612 107.640 214.283 107.640 C 217.078 107.640,217.418 107.734,217.424 108.506 C 217.426 108.726,217.513 109.036,217.618 109.197 C 217.753 109.403,217.773 109.287,217.685 108.808 C 217.430 107.411,217.513 107.445,214.392 107.445 L 211.572 107.445 211.376 107.961 M175.588 108.127 C 175.588 108.234,175.756 108.628,175.961 109.002 C 176.166 109.377,176.334 109.596,176.334 109.489 C 176.334 109.382,176.166 108.988,175.961 108.613 C 175.756 108.238,175.588 108.019,175.588 108.127 M134.987 108.596 C 135.219 109.349,135.666 110.365,135.766 110.365 C 135.871 110.365,135.109 108.373,134.947 108.224 C 134.889 108.170,134.907 108.338,134.987 108.596 M222.888 108.516 C 222.882 108.730,222.962 109.036,223.066 109.197 C 223.316 109.584,223.316 109.098,223.066 108.516 L 222.898 108.127 222.888 108.516 M284.380 108.371 C 284.380 108.700,283.392 109.796,282.733 110.197 C 282.408 110.396,282.250 110.558,282.384 110.559 C 282.935 110.561,284.780 108.559,284.493 108.272 C 284.430 108.210,284.380 108.254,284.380 108.371 M141.141 109.457 C 141.508 110.417,141.532 110.620,141.299 110.768 C 141.073 110.910,141.085 110.943,141.363 110.946 C 141.861 110.950,141.520 109.217,140.884 108.516 C 140.787 108.409,140.903 108.832,141.141 109.457 M303.397 109.119 C 303.205 109.376,303.118 109.586,303.204 109.586 C 303.374 109.586,303.911 108.808,303.809 108.711 C 303.775 108.678,303.590 108.862,303.397 109.119 M205.464 109.503 C 205.392 109.788,205.378 110.065,205.431 110.119 C 205.485 110.172,205.587 109.983,205.659 109.698 C 205.730 109.412,205.745 109.135,205.692 109.082 C 205.638 109.028,205.536 109.218,205.464 109.503 M210.914 109.503 C 210.843 109.788,210.828 110.065,210.881 110.119 C 210.935 110.172,211.037 109.983,211.109 109.698 C 211.180 109.412,211.195 109.135,211.142 109.082 C 211.088 109.028,210.986 109.218,210.914 109.503 M269.215 109.354 C 269.527 109.866,270.714 110.665,270.894 110.484 C 270.960 110.419,270.912 110.365,270.787 110.365 C 270.663 110.365,270.196 110.036,269.751 109.635 C 269.196 109.135,269.027 109.046,269.215 109.354 M217.827 109.890 C 217.818 110.110,217.948 110.461,218.117 110.668 C 218.285 110.876,218.363 110.930,218.290 110.788 C 218.217 110.645,218.087 110.295,218.001 110.009 C 217.875 109.592,217.840 109.568,217.827 109.890 M87.105 109.962 C 86.844 110.064,87.048 110.108,87.717 110.094 C 88.268 110.082,88.679 110.007,88.630 109.927 C 88.517 109.741,87.613 109.762,87.105 109.962 M223.327 110.212 C 223.366 110.503,223.302 110.781,223.183 110.829 C 223.065 110.878,223.122 110.925,223.309 110.934 C 223.681 110.950,223.723 110.675,223.439 110.073 C 223.280 109.737,223.265 109.757,223.327 110.212 M302.190 110.184 C 301.869 110.389,301.693 110.557,301.800 110.557 C 301.908 110.557,302.258 110.383,302.579 110.170 C 302.900 109.958,303.075 109.789,302.968 109.797 C 302.861 109.804,302.511 109.978,302.190 110.184 M271.436 110.754 C 271.650 110.846,272.000 110.922,272.214 110.922 L 272.603 110.922 272.214 110.754 C 272.000 110.662,271.650 110.587,271.436 110.587 L 271.046 110.587 271.436 110.754 M280.973 110.754 C 280.477 110.967,280.989 110.967,281.655 110.754 C 282.046 110.629,282.065 110.597,281.752 110.593 C 281.538 110.590,281.187 110.662,280.973 110.754 M300.438 110.754 L 300.049 110.922 300.438 110.922 C 300.652 110.922,301.002 110.846,301.217 110.754 L 301.606 110.587 301.217 110.587 C 301.002 110.587,300.652 110.662,300.438 110.754 M89.165 110.811 C 89.209 110.842,89.596 111.111,90.024 111.409 L 90.803 111.950 90.129 111.352 C 89.758 111.023,89.371 110.754,89.269 110.754 C 89.167 110.754,89.120 110.780,89.165 110.811 M99.471 110.778 C 99.461 110.974,100.253 112.701,100.352 112.701 C 100.402 112.701,100.315 112.395,100.159 112.021 C 99.832 111.238,99.479 110.601,99.471 110.778 M85.488 112.718 C 85.039 113.048,84.672 113.360,84.672 113.411 C 84.672 113.462,85.066 113.220,85.547 112.874 C 86.335 112.309,86.542 112.117,86.364 112.117 C 86.332 112.117,85.938 112.387,85.488 112.718 M72.625 112.917 C 72.505 113.261,72.441 113.577,72.483 113.618 C 72.524 113.660,72.657 113.412,72.776 113.068 C 72.896 112.724,72.960 112.409,72.919 112.367 C 72.877 112.326,72.745 112.573,72.625 112.917 M91.484 112.399 C 91.484 112.452,91.747 112.632,92.068 112.798 C 92.389 112.964,92.652 113.056,92.652 113.003 C 92.652 112.949,92.389 112.769,92.068 112.603 C 91.747 112.437,91.484 112.345,91.484 112.399 M92.944 113.223 C 93.358 113.607,94.580 114.453,94.721 114.453 C 94.802 114.453,94.567 114.227,94.198 113.952 C 93.497 113.428,92.608 112.911,92.944 113.223 M83.358 114.276 C 82.796 114.702,82.336 115.091,82.336 115.140 C 82.336 115.263,84.254 113.878,84.391 113.656 C 84.560 113.382,84.452 113.446,83.358 114.276 M79.367 114.759 C 78.640 115.153,78.684 115.318,79.416 114.939 C 79.737 114.773,80.000 114.596,80.000 114.545 C 80.000 114.420,79.979 114.427,79.367 114.759 M90.511 114.718 C 90.511 114.848,92.702 116.025,92.786 115.941 C 92.823 115.903,92.327 115.592,91.682 115.249 C 91.038 114.905,90.511 114.667,90.511 114.718 M69.781 115.426 C 69.707 115.762,69.687 116.078,69.737 116.128 C 69.786 116.177,69.883 115.938,69.951 115.596 C 70.114 114.785,69.956 114.628,69.781 115.426 M103.293 115.718 C 103.441 116.680,103.553 116.844,103.549 116.091 C 103.548 115.779,103.463 115.392,103.360 115.231 C 103.233 115.032,103.212 115.188,103.293 115.718 M77.908 115.643 C 77.244 116.068,77.029 116.353,77.616 116.031 C 78.062 115.785,78.762 115.244,78.637 115.241 C 78.584 115.239,78.255 115.420,77.908 115.643 M80.090 116.745 C 79.435 117.332,79.602 117.280,80.464 116.629 C 80.773 116.395,80.948 116.207,80.854 116.210 C 80.759 116.212,80.415 116.453,80.090 116.745 M75.620 117.085 L 75.036 117.575 75.766 117.162 C 76.168 116.935,76.496 116.715,76.496 116.672 C 76.496 116.476,76.156 116.636,75.620 117.085 M69.566 119.805 C 69.566 121.304,69.597 121.892,69.634 121.111 C 69.671 120.330,69.671 119.104,69.633 118.386 C 69.596 117.668,69.566 118.307,69.566 119.805 M103.760 118.462 C 103.728 119.451,104.830 121.025,105.256 120.599 C 105.318 120.537,105.289 120.484,105.191 120.480 C 104.743 120.465,104.253 119.837,104.024 118.984 C 103.886 118.472,103.767 118.238,103.760 118.462 M75.025 120.635 C 74.483 121.142,74.264 121.376,74.538 121.155 C 74.812 120.934,75.328 120.517,75.684 120.230 C 76.040 119.943,76.259 119.709,76.171 119.710 C 76.082 119.711,75.566 120.127,75.025 120.635 M105.499 121.062 C 105.499 121.241,105.316 121.279,104.866 121.192 C 104.416 121.106,104.318 121.126,104.526 121.262 C 105.070 121.619,106.016 121.329,105.616 120.928 C 105.551 120.864,105.499 120.924,105.499 121.062 M72.895 122.433 C 72.235 123.122,71.722 123.171,71.117 122.603 C 70.665 122.178,70.060 122.218,70.088 122.670 C 70.100 122.866,70.125 122.867,70.202 122.676 C 70.342 122.330,70.610 122.374,71.091 122.822 C 71.688 123.378,72.159 123.307,73.018 122.530 C 73.433 122.156,73.701 121.849,73.614 121.849 C 73.526 121.849,73.203 122.112,72.895 122.433 " stroke="none" fill="#99b1df" fill-rule="evenodd"></path><path id="path4" d="M82.639 74.788 C 82.472 75.026,82.339 75.310,82.344 75.420 C 82.348 75.530,82.482 75.380,82.642 75.085 C 82.940 74.535,83.380 74.388,83.611 74.761 C 83.683 74.877,84.126 75.136,84.596 75.338 C 85.066 75.539,85.452 75.817,85.454 75.954 C 85.457 76.092,85.637 76.423,85.855 76.691 L 86.252 77.178 85.925 76.496 C 85.487 75.585,85.071 75.134,84.668 75.134 C 84.485 75.134,84.112 74.959,83.840 74.745 C 83.208 74.248,83.012 74.255,82.639 74.788 M82.068 76.326 C 81.906 77.137,82.063 77.295,82.238 76.496 C 82.312 76.160,82.332 75.844,82.283 75.794 C 82.233 75.745,82.137 75.984,82.068 76.326 M86.233 77.397 C 86.231 77.518,86.360 77.726,86.521 77.859 C 86.681 77.992,86.813 78.217,86.813 78.358 C 86.813 78.499,86.892 78.664,86.989 78.724 C 87.086 78.784,87.125 78.679,87.076 78.492 C 86.959 78.047,86.239 77.112,86.233 77.397 M83.788 78.456 C 83.717 78.570,83.712 78.716,83.776 78.780 C 83.840 78.844,83.893 78.780,83.893 78.636 C 83.893 78.471,84.082 78.548,84.408 78.847 L 84.922 79.319 84.580 78.783 C 84.215 78.212,83.994 78.121,83.788 78.456 M81.190 79.048 C 81.070 79.392,81.006 79.708,81.047 79.750 C 81.089 79.791,81.221 79.544,81.341 79.200 C 81.461 78.856,81.525 78.540,81.483 78.499 C 81.442 78.457,81.309 78.704,81.190 79.048 M83.335 79.438 C 83.236 79.693,82.796 80.664,82.356 81.594 C 81.917 82.524,81.563 83.356,81.570 83.443 C 81.577 83.530,82.061 82.603,82.645 81.383 C 83.228 80.162,83.663 79.121,83.610 79.068 C 83.558 79.016,83.434 79.182,83.335 79.438 M87.211 79.052 C 87.192 79.309,87.814 80.621,87.909 80.526 C 87.964 80.471,87.831 80.089,87.614 79.678 C 87.397 79.266,87.215 78.984,87.211 79.052 M85.373 80.292 C 85.665 80.827,85.986 81.353,86.088 81.460 C 86.376 81.765,85.519 80.144,85.161 79.708 C 84.985 79.494,85.081 79.757,85.373 80.292 M87.999 80.876 C 87.999 80.983,88.253 81.552,88.564 82.141 C 88.876 82.730,89.130 83.124,89.130 83.017 C 89.130 82.910,88.876 82.341,88.564 81.752 C 88.253 81.163,87.999 80.769,87.999 80.876 M86.237 81.849 C 86.237 81.956,86.409 82.263,86.618 82.530 C 86.827 82.798,86.999 82.929,86.999 82.822 C 86.999 82.715,86.827 82.409,86.618 82.141 C 86.409 81.873,86.237 81.742,86.237 81.849 M87.310 83.650 C 88.350 85.253,88.625 85.645,88.710 85.645 C 88.762 85.645,88.648 85.404,88.457 85.109 C 87.416 83.506,87.141 83.114,87.056 83.114 C 87.005 83.114,87.119 83.355,87.310 83.650 M79.063 85.292 C 78.723 86.379,78.478 87.302,78.519 87.343 C 78.559 87.383,78.872 86.529,79.214 85.443 C 79.556 84.357,79.801 83.434,79.758 83.392 C 79.716 83.349,79.403 84.204,79.063 85.292 M80.409 85.762 C 80.073 86.479,79.834 87.100,79.876 87.143 C 79.919 87.186,80.229 86.634,80.564 85.917 C 80.900 85.200,81.140 84.578,81.097 84.536 C 81.054 84.493,80.744 85.044,80.409 85.762 M89.445 86.923 C 89.626 87.251,89.947 87.733,90.159 87.993 L 90.543 88.467 90.214 87.870 C 90.033 87.542,89.712 87.060,89.501 86.800 L 89.116 86.326 89.445 86.923 M90.954 86.764 C 91.281 87.387,91.873 88.790,91.873 88.940 C 91.873 89.042,91.961 89.179,92.068 89.245 C 92.196 89.325,92.197 89.197,92.072 88.867 C 91.701 87.891,91.084 86.618,90.981 86.618 C 90.924 86.618,90.912 86.684,90.954 86.764 M78.165 88.092 C 78.093 88.377,78.078 88.654,78.132 88.708 C 78.185 88.761,78.288 88.572,78.359 88.286 C 78.431 88.001,78.446 87.724,78.392 87.670 C 78.339 87.617,78.236 87.807,78.165 88.092 M91.101 89.517 C 91.423 90.041,91.818 90.579,91.977 90.711 C 92.137 90.844,91.909 90.415,91.471 89.758 C 90.518 88.332,90.273 88.173,91.101 89.517 M77.775 89.454 C 77.704 89.740,77.683 90.010,77.729 90.056 C 77.775 90.102,77.871 89.906,77.942 89.621 C 78.014 89.336,78.035 89.065,77.989 89.019 C 77.943 88.973,77.847 89.169,77.775 89.454 M78.335 89.830 C 78.048 90.319,77.731 90.649,77.616 90.578 C 77.492 90.502,77.467 90.544,77.554 90.685 C 77.755 91.010,78.122 90.678,78.622 89.719 C 79.166 88.674,78.967 88.751,78.335 89.830 M76.147 90.449 C 76.329 90.497,76.534 90.712,76.602 90.927 C 76.671 91.143,76.769 91.276,76.822 91.224 C 77.015 91.031,76.472 90.317,76.149 90.339 C 75.836 90.360,75.836 90.367,76.147 90.449 M92.433 91.338 C 92.591 91.540,92.947 91.673,93.309 91.665 C 93.814 91.654,93.851 91.625,93.528 91.495 C 93.314 91.409,93.069 91.379,92.984 91.428 C 92.899 91.477,92.680 91.401,92.498 91.258 C 92.198 91.023,92.192 91.031,92.433 91.338 M72.360 91.886 C 71.745 92.204,71.241 92.507,71.241 92.561 C 71.241 92.648,73.557 91.545,73.755 91.364 C 74.010 91.131,73.332 91.384,72.360 91.886 M76.915 91.990 C 76.895 92.405,76.749 92.658,76.448 92.804 C 76.134 92.955,76.100 93.019,76.327 93.028 C 76.801 93.048,77.119 92.550,77.026 91.934 L 76.944 91.387 76.915 91.990 M94.093 91.842 C 94.255 92.105,95.939 92.739,96.086 92.592 C 96.149 92.529,95.950 92.416,95.643 92.342 C 95.336 92.268,94.835 92.082,94.528 91.927 C 94.222 91.773,94.026 91.735,94.093 91.842 M92.561 92.765 C 92.296 93.400,92.291 93.542,92.526 93.777 C 92.761 94.012,92.787 93.983,92.707 93.568 C 92.657 93.302,92.718 92.892,92.844 92.657 C 92.970 92.422,93.027 92.184,92.971 92.128 C 92.915 92.072,92.731 92.358,92.561 92.765 M69.915 93.179 C 69.454 93.448,69.112 93.703,69.156 93.746 C 69.242 93.832,71.046 92.865,71.046 92.733 C 71.046 92.577,70.747 92.695,69.915 93.179 M96.545 92.847 C 96.706 92.950,96.968 93.035,97.129 93.035 C 97.388 93.035,97.388 93.014,97.129 92.847 C 96.968 92.743,96.706 92.658,96.545 92.658 C 96.285 92.658,96.285 92.679,96.545 92.847 M74.939 93.236 C 74.552 93.486,75.039 93.486,75.620 93.236 L 76.010 93.069 75.620 93.058 C 75.406 93.052,75.100 93.132,74.939 93.236 M98.005 93.236 C 98.219 93.328,98.569 93.403,98.783 93.403 L 99.173 93.403 98.783 93.236 C 98.569 93.144,98.219 93.069,98.005 93.069 L 97.616 93.069 98.005 93.236 M73.447 93.782 C 72.256 94.266,72.191 94.452,73.355 94.042 C 74.304 93.707,74.826 93.418,74.436 93.442 C 74.338 93.448,73.893 93.601,73.447 93.782 M99.659 93.625 C 99.820 93.729,100.214 93.807,100.535 93.798 C 101.108 93.781,101.109 93.778,100.633 93.625 C 99.888 93.387,99.291 93.387,99.659 93.625 M67.543 94.501 C 66.847 94.866,66.346 95.168,66.429 95.173 C 66.636 95.186,68.905 94.033,68.905 93.914 C 68.905 93.784,68.951 93.764,67.543 94.501 M102.092 94.008 C 102.461 94.173,104.098 94.289,103.925 94.138 C 103.881 94.099,103.363 94.015,102.774 93.951 C 102.075 93.874,101.838 93.894,102.092 94.008 M93.895 94.422 C 94.419 94.634,94.940 94.777,95.054 94.739 C 95.169 94.700,94.812 94.522,94.261 94.342 C 92.917 93.903,92.721 93.945,93.895 94.422 M104.526 94.386 C 104.793 94.468,105.538 94.588,106.180 94.652 C 106.828 94.716,107.131 94.700,106.861 94.617 C 106.594 94.534,105.849 94.414,105.207 94.351 C 104.558 94.287,104.255 94.302,104.526 94.386 M95.864 94.988 C 96.078 95.080,96.428 95.155,96.642 95.155 L 97.032 95.155 96.642 94.988 C 96.428 94.896,96.078 94.821,95.864 94.821 L 95.474 94.821 95.864 94.988 M108.029 94.988 C 108.779 95.228,109.180 95.228,108.808 94.988 C 108.647 94.884,108.297 94.807,108.029 94.816 L 107.543 94.832 108.029 94.988 M98.200 95.371 C 98.785 95.526,100.963 95.634,100.811 95.501 C 100.766 95.462,100.029 95.382,99.173 95.323 C 98.251 95.260,97.854 95.279,98.200 95.371 M109.489 95.377 C 109.567 95.504,108.329 95.587,105.948 95.615 L 102.287 95.659 105.499 95.714 C 109.217 95.779,109.632 95.863,108.483 96.320 C 108.037 96.497,107.599 96.715,107.510 96.805 C 107.421 96.894,107.830 96.772,108.418 96.534 C 110.842 95.555,110.576 96.047,107.689 97.882 C 107.127 98.240,106.667 98.572,106.667 98.621 C 106.667 98.730,106.831 98.633,108.418 97.591 C 109.114 97.135,109.990 96.497,110.365 96.174 L 111.046 95.588 110.511 95.580 C 110.217 95.575,109.976 95.484,109.976 95.377 C 109.976 95.270,109.839 95.182,109.672 95.182 C 109.505 95.182,109.423 95.270,109.489 95.377 M67.878 96.007 C 67.259 96.226,66.786 96.437,66.826 96.477 C 66.925 96.576,68.956 95.936,69.187 95.734 C 69.463 95.492,69.147 95.558,67.878 96.007 M63.942 96.266 C 63.620 96.433,63.270 96.659,63.163 96.769 C 63.056 96.879,63.341 96.777,63.796 96.543 C 64.251 96.308,64.623 96.081,64.623 96.039 C 64.623 95.922,64.574 95.938,63.942 96.266 M65.499 96.737 C 65.285 96.827,64.944 96.955,64.741 97.020 C 64.538 97.085,64.414 97.180,64.465 97.230 C 64.515 97.281,65.031 97.154,65.612 96.948 C 66.192 96.742,66.491 96.573,66.277 96.572 C 66.063 96.572,65.713 96.646,65.499 96.737 M62.181 97.279 C 61.202 98.105,60.633 99.259,61.027 99.620 C 61.370 99.933,61.376 99.933,61.132 99.609 C 60.842 99.224,61.519 98.039,62.447 97.309 C 62.709 97.103,62.846 96.936,62.751 96.939 C 62.657 96.941,62.400 97.094,62.181 97.279 M63.062 97.620 C 62.926 97.783,62.872 97.973,62.941 98.042 C 63.009 98.111,63.066 98.072,63.066 97.956 C 63.066 97.840,63.307 97.657,63.601 97.550 C 64.056 97.384,64.074 97.352,63.722 97.339 C 63.494 97.331,63.197 97.457,63.062 97.620 M105.304 97.713 C 104.929 97.918,104.678 98.090,104.745 98.094 C 104.947 98.107,106.277 97.521,106.277 97.418 C 106.277 97.249,105.998 97.333,105.304 97.713 M102.315 99.097 C 101.260 99.634,100.429 100.105,100.468 100.144 C 100.533 100.209,104.322 98.371,104.509 98.183 C 104.774 97.918,103.998 98.242,102.315 99.097 M63.844 98.576 C 63.844 98.725,65.228 99.509,65.323 99.414 C 65.375 99.361,65.064 99.134,64.631 98.908 C 64.198 98.682,63.844 98.533,63.844 98.576 M105.012 99.490 C 104.370 99.916,102.925 100.865,101.800 101.599 C 100.676 102.333,99.450 103.201,99.075 103.527 L 98.394 104.120 98.920 104.128 C 99.209 104.133,99.535 104.290,99.644 104.477 C 99.781 104.713,99.844 104.735,99.848 104.547 C 99.851 104.398,99.701 104.157,99.513 104.011 C 99.035 103.638,100.835 102.251,105.255 99.586 C 106.392 98.901,106.678 98.665,106.326 98.701 C 106.246 98.710,105.655 99.065,105.012 99.490 M65.596 99.559 C 65.596 99.673,67.468 100.634,67.682 100.629 C 67.823 100.626,65.809 99.465,65.662 99.465 C 65.626 99.465,65.596 99.507,65.596 99.559 M61.898 100.226 C 62.331 100.570,63.066 100.888,63.066 100.731 C 63.066 100.699,62.693 100.485,62.238 100.256 C 61.476 99.872,61.449 99.870,61.898 100.226 M98.680 101.114 C 97.880 101.593,96.832 102.343,96.350 102.782 L 95.474 103.580 96.350 102.933 C 96.832 102.578,97.270 102.236,97.324 102.174 C 97.377 102.111,98.056 101.685,98.832 101.227 C 100.053 100.506,100.415 100.243,100.188 100.243 C 100.158 100.243,99.480 100.635,98.680 101.114 M71.338 102.537 C 71.445 102.648,71.971 102.976,72.506 103.266 C 73.041 103.557,73.392 103.705,73.285 103.594 C 73.178 103.484,72.652 103.156,72.117 102.865 C 71.582 102.574,71.231 102.427,71.338 102.537 M68.236 102.854 C 69.219 103.282,69.842 103.386,69.002 102.982 C 68.574 102.776,68.092 102.605,67.932 102.601 C 67.771 102.597,67.908 102.711,68.236 102.854 M70.170 103.552 C 70.706 103.783,70.897 103.783,70.754 103.552 C 70.688 103.445,70.442 103.364,70.207 103.371 C 69.796 103.385,69.795 103.391,70.170 103.552 M73.869 104.051 C 74.240 104.363,74.214 104.373,73.285 104.269 C 72.654 104.199,72.448 104.220,72.701 104.329 C 73.734 104.777,74.885 104.406,73.917 103.938 C 73.487 103.729,73.486 103.731,73.869 104.051 M96.477 104.947 C 96.969 105.075,97.364 105.319,97.486 105.571 C 97.596 105.799,97.692 105.893,97.700 105.779 C 97.728 105.338,97.192 104.935,96.448 104.838 L 95.669 104.737 96.477 104.947 M72.439 105.450 C 72.323 105.745,72.180 106.248,72.123 106.569 C 72.065 106.891,72.173 106.715,72.362 106.180 C 72.701 105.221,72.718 105.207,73.482 105.242 C 74.067 105.268,74.162 105.235,73.869 105.109 C 73.111 104.784,72.660 104.892,72.439 105.450 M99.965 105.499 C 100.220 106.790,101.572 110.649,101.600 110.164 C 101.603 110.107,101.299 109.158,100.925 108.057 C 100.550 106.955,100.242 105.907,100.240 105.727 C 100.239 105.548,100.146 105.270,100.034 105.109 C 99.884 104.895,99.866 104.998,99.965 105.499 M74.480 105.499 C 74.603 105.659,74.746 105.966,74.798 106.180 C 74.889 106.550,74.895 106.549,74.917 106.155 C 74.929 105.927,74.786 105.621,74.599 105.474 C 74.302 105.242,74.287 105.245,74.480 105.499 M97.719 106.277 C 97.719 106.438,97.804 106.701,97.908 106.861 C 98.075 107.121,98.096 107.121,98.096 106.861 C 98.096 106.701,98.011 106.438,97.908 106.277 C 97.740 106.018,97.719 106.018,97.719 106.277 M74.477 106.966 C 74.410 107.140,74.363 107.429,74.372 107.607 C 74.381 107.786,74.466 107.674,74.560 107.358 C 74.744 106.743,74.679 106.439,74.477 106.966 M71.851 107.640 C 71.834 107.908,71.774 108.345,71.719 108.613 L 71.619 109.100 71.828 108.621 C 71.943 108.357,72.003 107.919,71.960 107.647 L 71.883 107.153 71.851 107.640 M98.102 107.291 C 98.102 107.349,98.307 107.868,98.557 108.443 C 98.807 109.018,99.072 109.655,99.145 109.858 C 99.219 110.060,99.320 110.186,99.369 110.136 C 99.418 110.087,99.211 109.461,98.909 108.745 C 98.412 107.567,98.102 107.009,98.102 107.291 M74.096 108.159 C 74.024 108.230,73.971 108.471,73.978 108.694 C 73.990 109.067,74.006 109.062,74.177 108.634 C 74.368 108.157,74.328 107.926,74.096 108.159 M71.349 109.941 C 71.269 110.297,71.252 110.635,71.310 110.694 C 71.457 110.840,71.689 109.857,71.581 109.546 C 71.533 109.408,71.429 109.585,71.349 109.941 M73.322 110.694 C 73.139 111.189,73.021 111.626,73.060 111.665 C 73.099 111.704,73.284 111.335,73.472 110.844 C 73.659 110.353,73.777 109.917,73.734 109.873 C 73.691 109.830,73.505 110.200,73.322 110.694 M87.060 110.113 C 86.624 110.197,85.644 111.338,86.008 111.338 C 86.115 111.338,86.256 111.168,86.322 110.961 C 86.461 110.523,87.604 110.090,88.281 110.220 C 88.538 110.269,88.701 110.234,88.644 110.142 C 88.540 109.973,87.848 109.960,87.060 110.113 M99.473 110.511 C 99.484 110.706,100.225 112.054,100.235 111.897 C 100.249 111.696,99.662 110.365,99.559 110.365 C 99.507 110.365,99.468 110.431,99.473 110.511 M70.963 111.449 C 70.891 111.735,70.870 112.006,70.916 112.051 C 70.962 112.097,71.058 111.902,71.130 111.616 C 71.201 111.331,71.222 111.060,71.176 111.014 C 71.131 110.968,71.034 111.164,70.963 111.449 M89.864 111.467 C 90.203 111.771,90.773 112.185,91.129 112.388 C 91.999 112.883,91.626 112.543,90.316 111.647 C 89.521 111.102,89.404 111.056,89.864 111.467 M84.173 112.138 C 83.430 112.577,82.365 113.207,81.806 113.538 C 81.247 113.869,80.820 114.169,80.856 114.206 C 80.893 114.243,81.351 114.015,81.873 113.701 C 82.395 113.386,83.457 112.766,84.234 112.322 C 85.444 111.631,85.845 111.338,85.584 111.338 C 85.550 111.338,84.915 111.698,84.173 112.138 M101.994 111.679 C 101.993 111.851,102.556 113.599,102.793 114.161 C 103.034 114.729,102.798 113.603,102.436 112.457 C 102.170 111.612,101.997 111.307,101.994 111.679 M83.990 113.595 C 82.813 114.492,81.762 115.258,81.655 115.299 C 81.547 115.339,81.504 115.420,81.557 115.477 C 81.611 115.535,82.705 114.798,83.990 113.839 C 85.470 112.735,86.450 112.129,86.666 112.186 C 86.854 112.235,87.007 112.196,87.007 112.099 C 87.007 111.591,85.905 112.138,83.990 113.595 M70.574 112.812 C 70.502 113.097,70.481 113.368,70.527 113.414 C 70.573 113.460,70.669 113.264,70.740 112.979 C 70.812 112.694,70.833 112.423,70.787 112.377 C 70.741 112.331,70.645 112.527,70.574 112.812 M87.291 112.493 C 87.489 112.813,89.505 114.139,90.706 114.738 C 92.095 115.432,91.733 115.081,90.219 114.266 C 89.577 113.920,88.626 113.332,88.106 112.960 C 87.587 112.588,87.220 112.377,87.291 112.493 M91.873 112.767 C 91.873 112.884,93.402 113.869,93.572 113.862 C 93.655 113.859,93.547 113.721,93.333 113.556 C 92.868 113.196,91.873 112.659,91.873 112.767 M72.157 113.718 C 71.701 114.953,71.231 116.649,71.321 116.739 C 71.364 116.782,71.543 116.307,71.719 115.684 C 71.894 115.060,72.169 114.210,72.329 113.796 C 72.489 113.381,72.585 113.007,72.542 112.964 C 72.500 112.922,72.327 113.261,72.157 113.718 M100.911 113.769 C 101.238 114.552,101.591 115.189,101.600 115.013 C 101.609 114.817,100.818 113.090,100.718 113.090 C 100.668 113.090,100.755 113.396,100.911 113.769 M70.194 113.973 C 70.128 114.147,70.082 114.523,70.093 114.809 C 70.108 115.227,70.147 115.180,70.290 114.569 C 70.473 113.790,70.411 113.408,70.194 113.973 M79.319 114.964 C 77.830 115.846,77.434 116.244,78.784 115.502 C 79.767 114.960,80.786 114.263,80.584 114.270 C 80.530 114.271,79.961 114.584,79.319 114.964 M94.599 114.524 C 94.599 114.659,96.192 115.650,96.275 115.566 C 96.321 115.520,96.008 115.251,95.580 114.968 C 94.835 114.475,94.599 114.368,94.599 114.524 M102.971 114.955 C 102.973 115.161,103.063 115.460,103.172 115.620 C 103.316 115.834,103.334 115.755,103.239 115.328 C 103.079 114.613,102.967 114.457,102.971 114.955 M92.068 115.420 C 92.572 115.796,96.582 117.789,96.666 117.705 C 96.710 117.661,95.715 117.110,94.456 116.481 C 91.987 115.247,91.616 115.082,92.068 115.420 M79.945 116.605 C 79.226 117.146,78.637 117.633,78.637 117.687 C 78.637 117.796,79.958 116.867,80.876 116.114 C 81.911 115.264,81.292 115.590,79.945 116.605 M96.837 115.915 C 97.273 116.273,98.894 117.130,98.589 116.842 C 98.482 116.741,97.956 116.419,97.421 116.127 C 96.886 115.835,96.623 115.740,96.837 115.915 M75.426 117.395 C 74.248 118.155,72.847 119.141,72.311 119.586 C 70.469 121.118,70.607 121.083,70.732 119.990 C 70.809 119.312,70.792 119.171,70.672 119.513 C 70.067 121.239,70.408 121.347,72.117 119.971 C 72.866 119.367,74.355 118.305,75.426 117.611 C 77.302 116.395,77.841 116.009,77.655 116.011 C 77.606 116.011,76.603 116.634,75.426 117.395 M69.721 119.356 C 69.700 121.143,69.749 122.646,69.830 122.696 C 69.910 122.745,69.953 121.765,69.925 120.517 C 69.834 116.469,69.758 116.037,69.721 119.356 M102.010 116.448 C 102.030 116.768,102.739 118.686,102.759 118.473 C 102.781 118.226,102.175 116.204,102.079 116.204 C 102.033 116.204,102.002 116.314,102.010 116.448 M103.394 117.275 C 103.389 117.703,103.460 118.229,103.552 118.443 L 103.720 118.832 103.722 118.443 C 103.723 118.229,103.652 117.703,103.563 117.275 L 103.402 116.496 103.394 117.275 M70.949 117.762 C 70.874 118.204,70.854 118.607,70.904 118.657 C 70.954 118.707,71.053 118.383,71.124 117.937 C 71.195 117.491,71.216 117.088,71.169 117.041 C 71.123 116.995,71.024 117.319,70.949 117.762 M98.881 117.075 C 98.881 117.126,99.165 117.307,99.513 117.476 L 100.146 117.785 99.659 117.388 C 99.191 117.006,98.881 116.882,98.881 117.075 M76.186 119.440 C 74.055 121.125,72.214 122.748,72.214 122.942 C 72.214 122.999,72.981 122.374,73.917 121.553 C 74.854 120.731,76.255 119.581,77.032 118.997 C 78.285 118.053,78.602 117.762,78.376 117.762 C 78.339 117.762,77.353 118.517,76.186 119.440 M96.934 117.827 C 96.934 117.877,97.217 118.017,97.562 118.137 C 97.908 118.258,98.105 118.276,98.000 118.178 C 97.779 117.971,96.934 117.692,96.934 117.827 M101.096 118.307 C 101.394 118.790,102.968 119.299,102.968 118.913 C 102.968 118.797,102.859 118.741,102.725 118.789 C 102.591 118.836,102.144 118.706,101.731 118.499 C 101.319 118.292,101.033 118.206,101.096 118.307 M98.686 118.621 C 98.954 118.764,99.392 118.939,99.659 119.009 C 99.944 119.085,99.828 118.973,99.381 118.742 C 98.961 118.524,98.523 118.349,98.408 118.353 C 98.293 118.358,98.418 118.478,98.686 118.621 M103.762 119.330 C 103.754 119.497,103.883 119.804,104.050 120.011 C 104.348 120.383,104.350 120.383,104.173 120.000 C 104.075 119.786,103.945 119.479,103.886 119.319 C 103.792 119.067,103.776 119.068,103.762 119.330 M103.844 120.777 C 105.314 121.506,106.160 121.351,104.964 120.572 C 104.498 120.269,104.463 120.266,104.695 120.550 C 104.995 120.915,104.402 121.051,104.029 120.703 C 103.927 120.608,103.625 120.477,103.358 120.412 C 103.090 120.347,103.309 120.512,103.844 120.777 M70.203 121.784 C 69.947 122.040,70.073 122.421,70.375 122.305 C 70.548 122.239,70.901 122.386,71.202 122.650 C 71.520 122.928,71.462 122.823,71.057 122.383 C 70.299 121.560,70.374 121.613,70.203 121.784 " stroke="none" fill="#7c849c" fill-rule="evenodd"></path></g></svg>