<?xml version="1.0" encoding="UTF-8"?>
<svg xmlns="http://www.w3.org/2000/svg" xmlns:xlink="http://www.w3.org/1999/xlink" width="24pt" height="24pt" viewBox="0 0 24 24" version="1.1">
<g id="surface1">
<path style=" stroke:none;fill-rule:nonzero;fill:rgb(0%,0%,0%);fill-opacity:1;" d="M 9.171875 0.0273438 C 7.773438 0.132812 6.289062 0.589844 5.078125 1.28125 C 2.296875 2.875 0.46875 5.636719 0.109375 8.796875 C 0.0507812 9.300781 0.0507812 10.464844 0.109375 10.96875 C 0.539062 14.738281 3.125 17.976562 6.6875 19.207031 C 8.839844 19.945312 11.132812 19.9375 13.253906 19.179688 C 13.511719 19.089844 14.011719 18.867188 14.367188 18.691406 L 15.019531 18.371094 L 17.550781 20.898438 C 20.019531 23.363281 20.09375 23.433594 20.371094 23.5625 C 21.058594 23.886719 21.785156 23.886719 22.457031 23.558594 C 22.976562 23.308594 23.472656 22.726562 23.652344 22.160156 C 23.851562 21.550781 23.742188 20.765625 23.390625 20.195312 C 23.320312 20.085938 22.234375 18.96875 20.804688 17.53125 L 18.332031 15.058594 L 18.472656 14.828125 C 18.796875 14.292969 19.199219 13.367188 19.410156 12.65625 C 19.902344 11.015625 19.929688 9.074219 19.484375 7.390625 C 19.125 6.023438 18.496094 4.777344 17.609375 3.667969 C 16.359375 2.109375 14.507812 0.898438 12.554688 0.359375 C 11.507812 0.0664062 10.234375 -0.0546875 9.171875 0.0273438 Z M 11.082031 3.238281 C 13.699219 3.703125 15.824219 5.683594 16.464844 8.253906 C 16.613281 8.851562 16.640625 9.101562 16.640625 9.902344 C 16.636719 10.785156 16.597656 11.09375 16.375 11.816406 C 16.070312 12.8125 15.585938 13.664062 14.882812 14.441406 C 13.507812 15.941406 11.4375 16.757812 9.4375 16.597656 C 7.773438 16.457031 6.371094 15.8125 5.1875 14.644531 C 4.410156 13.878906 3.878906 13.007812 3.523438 11.941406 C 2.582031 9.101562 3.703125 5.921875 6.234375 4.257812 C 7.074219 3.703125 8.027344 3.34375 9.023438 3.203125 C 9.523438 3.132812 10.582031 3.152344 11.082031 3.238281 Z M 11.082031 3.238281 "/>
</g>
</svg>
